<?xml version="1.0" encoding="utf-8"?>
<!-- Generator: Adobe Illustrator 26.5.0, SVG Export Plug-In . SVG Version: 6.00 Build 0)  -->
<svg version="1.1" id="Calque_1" xmlns="http://www.w3.org/2000/svg" xmlns:xlink="http://www.w3.org/1999/xlink" x="0px" y="0px"
	 viewBox="0 0 50 50" style="enable-background:new 0 0 50 50;" xml:space="preserve">
<style type="text/css">
	.st0{fill:url(#SVGID_1_);}
	.st1{fill:#D04406;}
	.st2{fill:url(#SVGID_00000158742891140757438180000017517640318190189199_);}
	.st3{fill:url(#SVGID_00000145016730353217914920000004385777664875741371_);}
	.st4{fill-rule:evenodd;clip-rule:evenodd;fill:#1B1219;}
	.st5{fill-rule:evenodd;clip-rule:evenodd;fill:#D04406;}
	.st6{fill-rule:evenodd;clip-rule:evenodd;fill:#FFFFFF;}
	.st7{fill-rule:evenodd;clip-rule:evenodd;fill:#FEDBA1;}
	.st8{fill-rule:evenodd;clip-rule:evenodd;fill:#FFC926;}
	.st9{fill-rule:evenodd;clip-rule:evenodd;fill:#FC1F1F;}
	.st10{fill-rule:evenodd;clip-rule:evenodd;fill:#FC6262;}
	.st11{fill-rule:evenodd;clip-rule:evenodd;fill:#71960C;}
	.st12{fill-rule:evenodd;clip-rule:evenodd;fill:#A6D130;}
	.st13{fill-rule:evenodd;clip-rule:evenodd;fill:#EB802F;}
	.st14{fill-rule:evenodd;clip-rule:evenodd;fill:#FED999;}
	.st15{fill-rule:evenodd;clip-rule:evenodd;fill:#A1310B;}
	.st16{fill:url(#SVGID_00000155837330563028064660000015380003975589507775_);}
	.st17{fill:url(#SVGID_00000134237684597149935690000011687487855880886175_);}
	.st18{fill:url(#SVGID_00000021114412883866854840000009415181186923320764_);}
	.st19{fill:url(#SVGID_00000106842812404632751900000005856751444200394388_);}
	.st20{fill:url(#SVGID_00000048473176423736968420000009369411961778689450_);}
	.st21{fill:url(#SVGID_00000127751501095809298460000011047579349534109588_);}
	.st22{fill:url(#SVGID_00000003798043848300028170000009687340967812690365_);}
	.st23{fill:#FEDBA1;}
	.st24{fill:url(#SVGID_00000018198653382427024570000012964142624668505511_);}
</style>
<linearGradient id="SVGID_1_" gradientUnits="userSpaceOnUse" x1="18.348" y1="312.8312" x2="60.9651" y2="312.8312" gradientTransform="matrix(0 -1 1 0 -288.8889 63.8889)">
	<stop  offset="0" style="stop-color:#CA3308"/>
	<stop  offset="1" style="stop-color:#FD860F"/>
</linearGradient>
<circle class="st0" cx="23.94" cy="24.23" r="21.31"/>
<path class="st1" d="M42.85,27.9H5.04c-0.05-0.22-0.09-0.44-0.13-0.66h38.08C42.94,27.46,42.9,27.68,42.85,27.9z"/>
<path class="st1" d="M43.05,26.84H4.83c-0.04-0.22-0.07-0.44-0.1-0.66h38.41C43.12,26.41,43.09,26.63,43.05,26.84z"/>
<path class="st1" d="M43.2,25.79H4.69c-0.02-0.22-0.05-0.44-0.06-0.66h38.63C43.24,25.36,43.22,25.58,43.2,25.79z"/>
<path class="st1" d="M43.28,24.74H4.6c-0.01-0.22-0.02-0.44-0.03-0.66h38.73C43.3,24.31,43.3,24.52,43.28,24.74z"/>
<path class="st1" d="M43.31,23.66c0,0.01,0,0.02,0,0.03H4.57c0-0.01,0-0.02,0-0.03c0-0.21,0-0.41,0.01-0.62H43.3
	C43.31,23.24,43.31,23.45,43.31,23.66z"/>
<path class="st1" d="M43.29,22.64H4.6c0.01-0.22,0.03-0.44,0.05-0.66h38.6C43.26,22.2,43.28,22.42,43.29,22.64z"/>
<path class="st1" d="M43.2,21.59H4.68c0.02-0.22,0.05-0.44,0.08-0.66h38.36C43.15,21.15,43.18,21.37,43.2,21.59z"/>
<path class="st1" d="M43.06,20.54H4.82c0.04-0.22,0.07-0.44,0.12-0.66h38.01C42.99,20.1,43.03,20.32,43.06,20.54z"/>
<path class="st1" d="M42.6,18.44H5.28c0.06-0.22,0.13-0.44,0.2-0.66h36.93C42.48,18,42.54,18.22,42.6,18.44z"/>
<path class="st1" d="M41.88,16.33H6c0.09-0.22,0.18-0.44,0.28-0.66H41.6C41.7,15.89,41.79,16.11,41.88,16.33z"/>
<path class="st1" d="M40.87,14.23H7.01c0.12-0.22,0.25-0.44,0.38-0.66h33.09C40.62,13.79,40.75,14.01,40.87,14.23z"/>
<path class="st1" d="M39.51,12.13H8.37c0.17-0.22,0.34-0.44,0.51-0.66H39C39.18,11.69,39.35,11.91,39.51,12.13z"/>
<path class="st1" d="M37.71,10.03H10.18c0.22-0.22,0.45-0.44,0.68-0.66h26.17C37.26,9.59,37.49,9.8,37.71,10.03z"/>
<path class="st1" d="M35.25,7.93H12.64c0.32-0.23,0.64-0.45,0.97-0.66h20.67C34.61,7.48,34.93,7.7,35.25,7.93z"/>
<path class="st1" d="M31.52,5.82H16.36c0.58-0.25,1.17-0.47,1.78-0.66h11.6C30.35,5.36,30.94,5.58,31.52,5.82z"/>
<path class="st1" d="M19.6,4.77c1.4-0.32,2.85-0.49,4.34-0.49s2.95,0.17,4.34,0.49H19.6z"/>
<linearGradient id="SVGID_00000088824753505582888650000014397085309702541441_" gradientUnits="userSpaceOnUse" x1="23.9423" y1="46.347" x2="23.9423" y2="2.0102">
	<stop  offset="0.5909" style="stop-color:#1B1219"/>
	<stop  offset="0.6388" style="stop-color:#2E1413"/>
	<stop  offset="0.7131" style="stop-color:#45160B"/>
	<stop  offset="0.7932" style="stop-color:#551805"/>
	<stop  offset="0.8825" style="stop-color:#5F1902"/>
	<stop  offset="1" style="stop-color:#621901"/>
</linearGradient>
<path style="fill:url(#SVGID_00000088824753505582888650000014397085309702541441_);" d="M23.94,1.64
	c-12.47,0-22.59,10.11-22.59,22.59c0,12.47,10.11,22.59,22.59,22.59s22.59-10.11,22.59-22.59C46.53,11.76,36.42,1.64,23.94,1.64z
	 M23.94,2.92c11.07,0,20.17,8.45,21.21,19.25l-1.83-0.43l-3.31-4.39l-2.27,4.59l-1.04-1.28H14.44l-3.11-3.31l-3.11,3.97l-1.38-1.74
	l-2.08,2.7l-2.08,0.52C3.42,11.7,12.66,2.92,23.94,2.92z"/>
<linearGradient id="SVGID_00000133522448320738321680000003713974290123837094_" gradientUnits="userSpaceOnUse" x1="23.9549" y1="42.3012" x2="23.9292" y2="5.2463">
	<stop  offset="0.5909" style="stop-color:#1B1219"/>
	<stop  offset="0.6388" style="stop-color:#2E1413"/>
	<stop  offset="0.7131" style="stop-color:#45160B"/>
	<stop  offset="0.7932" style="stop-color:#551805"/>
	<stop  offset="0.8825" style="stop-color:#5F1902"/>
	<stop  offset="1" style="stop-color:#621901"/>
</linearGradient>
<path style="fill:url(#SVGID_00000133522448320738321680000003713974290123837094_);" d="M23.94,3.7C12.6,3.7,3.41,12.89,3.41,24.23
	s9.19,20.54,20.54,20.54s20.54-9.19,20.54-20.54S35.28,3.7,23.94,3.7z M23.94,43.6c-10.7,0-19.37-8.67-19.37-19.37
	S13.24,4.86,23.94,4.86c10.7,0,19.37,8.67,19.37,19.37S34.64,43.6,23.94,43.6z"/>
<g>
	<path class="st4" d="M16.56,13.4v-0.56c0-1.27,0.37-2.46,1.16-3.47c3.66-4.72,14.7-3.53,14.7,3.47v0.36
		c0.07,0.05,0.13,0.1,0.2,0.15c0.53,0.4,0.82,1.08,0.57,1.72c-0.01,0.04-0.03,0.07-0.04,0.1c0.27,0.38,0.3,0.9,0.07,1.33
		c-0.05,0.1-0.11,0.19-0.19,0.27c-0.04,0.05-0.09,0.09-0.13,0.13v0.94c0,0.41-0.15,0.8-0.41,1.1c0,0.2,0,0.4-0.01,0.61
		c-0.03,0.44-0.11,0.88-0.33,1.27c-0.43,0.78-1.22,1.05-2.07,1.05H18.9c-0.85,0-1.63-0.27-2.07-1.05c-0.32-0.58-0.34-1.23-0.34-1.88
		c-0.26-0.31-0.41-0.7-0.41-1.1v-1.22c-0.05-0.05-0.1-0.11-0.14-0.17c-0.06-0.09-0.11-0.19-0.15-0.29c-0.17-0.44-0.1-0.94,0.2-1.28
		C15.86,14.32,16.17,13.8,16.56,13.4"/>
	<path class="st5" d="M17.77,15.55h8.81l5.43,0.88c0.07,0.01,0.13,0.01,0.19,0c0.01,0.04,0.01,0.09,0.01,0.13v1.28
		c0,0.56-0.46,1.02-1.02,1.02H17.77c-0.56,0-1.02-0.46-1.02-1.02v-1.28C16.76,16.01,17.21,15.55,17.77,15.55"/>
	<path class="st6" d="M29.8,21.13h0.27c1.52,0,1.66-1.02,1.67-1.93l0-0.27H31.2l-0.03,0.55C31.1,20.28,30.82,21.02,29.8,21.13"/>
	<path class="st7" d="M19.32,21.13H29.8c1.02-0.11,1.3-0.85,1.37-1.65H18.31C18.33,20.16,18.43,20.9,19.32,21.13"/>
	<path class="st8" d="M22.46,14.96L21.74,15L22.46,14.96L22.46,14.96z M32.21,16.91c-1.11,0.17-5.77-0.49-7.98,0.26
		c-0.76,0.26-1.17,0.69-2.06,0.69c-1.2,0-0.79-1.55-2.7-0.16c-0.34,0.25-0.79,0.25-1.04-0.19c-0.36-0.62-1.23-0.03-1.66-0.69
		l0.02-0.25c0.07,0.01,0.14,0.02,0.21,0.01l7.23-0.32c0.29-0.01,0.55-0.15,0.7-0.42c0.01-0.02,0.02-0.05,0.04-0.07
		c0.07-0.03,0.13-0.07,0.19-0.11l6.8,1.11c0.09,0.01,0.17,0.02,0.25,0V16.91z M32.04,16.44c-0.01,0-0.02,0-0.03,0
		C32.02,16.44,32.03,16.44,32.04,16.44z M32.07,16.44c-0.01,0-0.02,0-0.03,0C32.05,16.44,32.06,16.44,32.07,16.44z M32.1,16.44
		c-0.01,0-0.02,0-0.03,0C32.08,16.44,32.09,16.44,32.1,16.44z M32.12,16.44c-0.01,0-0.02,0-0.03,0
		C32.11,16.44,32.12,16.44,32.12,16.44z M32.15,16.44c-0.01,0-0.02,0-0.02,0C32.13,16.44,32.14,16.44,32.15,16.44z M32.18,16.44
		c-0.01,0-0.02,0-0.02,0C32.16,16.44,32.17,16.44,32.18,16.44z M32.2,16.44L32.2,16.44L32.2,16.44c-0.01,0-0.01,0-0.02,0
		C32.19,16.44,32.19,16.44,32.2,16.44z M32.23,16.43c-0.01,0-0.01,0-0.02,0C32.21,16.43,32.22,16.43,32.23,16.43z M32.25,16.42
		c-0.01,0-0.01,0-0.02,0C32.24,16.43,32.25,16.42,32.25,16.42z M32.28,16.41c-0.01,0-0.01,0-0.02,0.01
		C32.26,16.42,32.27,16.42,32.28,16.41z"/>
	<path class="st7" d="M31.4,16.69l-6.16-0.82c-0.05,0.26-0.58,0.66-0.91,0.67l-7.19,0.13c-0.09,0-0.25-0.05-0.36-0.09l0-0.01
		c0.07,0.01,0.14,0.02,0.21,0.01l7.23-0.32c0.29-0.01,0.55-0.15,0.7-0.42c0.01-0.02,0.02-0.05,0.04-0.07
		c0.07-0.03,0.13-0.07,0.19-0.11L31.4,16.69z"/>
	<path class="st6" d="M27.61,16.68c-1.23-0.03-2.42,0.01-3.28,0.23c-0.82,0.2-1.25,0.57-2.2,0.55c-1.27-0.03-0.69-1.1-2.75,0.08
		c-0.37,0.21-0.7,0.15-0.96-0.25c-0.25-0.38-1-0.31-1.38-0.31c-0.03-0.02,1.22-0.17,1.47,0.22c0.26,0.4,0.54,0.39,0.91,0.18
		c2.06-1.17,1.48,0.05,2.75-0.08c0.65-0.06,1.86-0.39,2.2-0.55C25.14,16.41,31.03,16.77,27.61,16.68"/>
	<path class="st7" d="M32.2,16.89l0.01,0.03c-1.11,0.17-5.77-0.49-7.98,0.26c-0.76,0.26-1.17,0.69-2.06,0.69
		c-1.2,0-0.79-1.55-2.7-0.16c-0.34,0.25-0.79,0.25-1.04-0.19c-0.36-0.62-1.25-0.04-1.66-0.69c0.54,0.2,1.38-0.02,1.67,0.42
		c0.26,0.4,0.59,0.46,0.96,0.25c2.06-1.17,1.48-0.11,2.75-0.08c0.94,0.03,1.38-0.34,2.2-0.55C26.41,16.36,30.44,16.84,32.2,16.89"/>
	<path class="st9" d="M16.9,15.21l7.21-0.32c0.69-0.03,0.79,1,0.11,1.03l-7.23,0.32C16.33,16.27,16.21,15.24,16.9,15.21"/>
	<path class="st9" d="M32.21,15.42l-7.12-1.16c-0.68-0.11-0.9,0.9-0.23,1.01l7.15,1.16C32.65,16.54,32.89,15.53,32.21,15.42"/>
	<path class="st10" d="M24.53,14.51l8.08,1.3c-0.03-0.19-0.15-0.35-0.41-0.39l-7.12-1.16C24.83,14.22,24.64,14.34,24.53,14.51"/>
	<path class="st10" d="M24.63,15.21l-8.17,0.34c0.05-0.18,0.19-0.33,0.45-0.34l7.21-0.32C24.37,14.88,24.55,15.02,24.63,15.21"/>
	<path class="st11" d="M32.17,13.94c-0.1-0.08-0.21-0.15-0.31-0.23H17.29c-0.61,0.52-0.79,1.02-0.38,1.3
		c0.69,0.49,1.36,0.1,1.97-0.04c-0.25-0.11-0.58-0.24-0.97-0.38c0.54,0.03,1.17,0.11,1.67,0.39c0.08,0.03,0.16,0.08,0.24,0.15
		c0.87,0.76,1.06-0.11,1.76-0.44c0.51-0.3,1.15-0.37,1.7-0.41c-0.33,0.12-0.61,0.23-0.85,0.33c0.2,0.04,0.43,0.12,0.69,0.25
		c0.95,0.47,1.63,1.18,2.23,0.04c0.17-0.16,0.33-0.25,0.49-0.3c-0.26-0.12-0.61-0.26-1.03-0.41c0.59,0.04,1.28,0.12,1.8,0.47
		c0.31,0.13,0.6,0.32,0.91,0.41c1.71,0.45,1.97-0.15,2.47-0.34c-0.25-0.11-0.55-0.23-0.92-0.36c0.55,0.03,1.18,0.11,1.68,0.4
		c0.02,0.01,0.05,0.02,0.07,0.03C32.14,15.88,33.09,14.64,32.17,13.94"/>
	<path class="st12" d="M22.65,14.52L22.65,14.52c0.08-0.03,0.16-0.06,0.23-0.09C22.8,14.46,22.72,14.49,22.65,14.52 M32.15,13.92
		c-0.1-0.07-0.2-0.14-0.3-0.21H17.31c-0.47,0.39-0.66,0.76-0.5,1.02c0.35,0.53,0.95,0.38,1.55,0.2c-0.22-0.18-0.39-0.3-0.51-0.35
		l0.09,0.03l-0.03-0.01c0.35,0.02,0.74,0.06,1.11,0.16c0.27-0.05,0.51-0.04,0.7,0.1c1.12,0.88,1.12-0.65,2.53-0.44
		c0.34-0.09,0.7-0.12,1.03-0.14c-0.07,0.02-0.13,0.05-0.2,0.07c0.1-0.04,0.18-0.06,0.24-0.08c-0.22,0.14-0.37,0.25-0.45,0.33
		c0.05,0.02,0.1,0.04,0.15,0.06c0.95,0.42,1.62,1.05,2.23,0.07c0.06-0.05,0.11-0.08,0.17-0.12c-0.26-0.19-0.48-0.34-0.66-0.44
		c0.03,0.01,0.06,0.01,0.09,0.02c0.44,0.03,0.92,0.09,1.35,0.26c0.42,0.07,0.81,0.35,1.22,0.45c1.47,0.36,1.87,0.02,2.27-0.19
		c-0.24-0.15-0.47-0.27-0.67-0.36l0.06,0.01l-0.02-0.01c0.45,0.03,0.95,0.08,1.39,0.26c0.08,0.02,0.17,0.04,0.27,0.08
		C32.03,15.67,33.05,14.57,32.15,13.92z"/>
	<path class="st13" d="M17.28,12.85v0.52h14.4v-0.52C31.68,5.43,17.28,5.43,17.28,12.85"/>
	<path class="st14" d="M31.17,13.37h0.52v-0.52c0-5.72-8.57-7.03-12.49-3.92C17.56,10.53,19.71,12.67,31.17,13.37"/>
	<path class="st6" d="M31.25,13.37h0.44v-0.52c0-4.87-6.21-6.54-10.48-5.01c4.24-1.27,10.04,0.45,10.04,5.16V13.37z"/>
	<path class="st6" d="M28.02,8.31c-0.09-0.01-0.18,0.15-0.2,0.35c-0.02,0.2,0.03,0.37,0.12,0.38c0.09,0.01,0.18-0.15,0.2-0.35
		C28.16,8.49,28.1,8.32,28.02,8.31 M25.44,8.05c-0.09-0.01-0.18,0.15-0.2,0.35c-0.02,0.2,0.03,0.37,0.12,0.38
		c0.09,0.01,0.18-0.15,0.2-0.35C25.58,8.23,25.53,8.06,25.44,8.05z M26.66,8.16c-0.09-0.01-0.18,0.15-0.2,0.35
		c-0.02,0.2,0.03,0.37,0.12,0.38c0.09,0.01,0.18-0.15,0.2-0.35C26.8,8.34,26.74,8.17,26.66,8.16z M26.08,10.99
		c-0.09-0.01-0.18,0.15-0.2,0.35c-0.02,0.2,0.03,0.37,0.12,0.38c0.09,0.01,0.18-0.15,0.2-0.35C26.22,11.17,26.16,11,26.08,10.99z
		 M24.72,10.84c-0.09-0.01-0.18,0.15-0.2,0.35c-0.02,0.2,0.03,0.37,0.12,0.38c0.09,0.01,0.18-0.15,0.2-0.35
		C24.86,11.02,24.8,10.85,24.72,10.84z M22.67,10.99c-0.09-0.01-0.18,0.15-0.2,0.35c-0.02,0.2,0.03,0.37,0.12,0.38
		c0.09,0.01,0.18-0.15,0.2-0.35C22.81,11.17,22.75,11,22.67,10.99z M21.31,10.84c-0.09-0.01-0.18,0.15-0.2,0.35
		c-0.02,0.2,0.03,0.37,0.12,0.38c0.09,0.01,0.18-0.15,0.2-0.35C21.45,11.02,21.39,10.85,21.31,10.84z M26,9.27
		c-0.09,0.02-0.12,0.19-0.09,0.39c0.04,0.2,0.14,0.34,0.23,0.33c0.09-0.02,0.12-0.19,0.09-0.39C26.19,9.4,26.09,9.25,26,9.27z
		 M24.66,9.55c-0.09,0.02-0.12,0.19-0.09,0.39c0.04,0.2,0.14,0.34,0.23,0.33c0.09-0.02,0.12-0.19,0.09-0.39
		C24.85,9.68,24.75,9.53,24.66,9.55z M28.26,10.59c-0.09,0.02-0.12,0.19-0.09,0.39c0.04,0.2,0.14,0.34,0.23,0.33
		c0.09-0.02,0.12-0.19,0.09-0.39C28.45,10.72,28.35,10.58,28.26,10.59z M26.92,10.88c-0.09,0.02-0.12,0.19-0.09,0.39
		c0.04,0.2,0.14,0.34,0.23,0.33c0.09-0.02,0.12-0.19,0.09-0.39C27.11,11.01,27.01,10.86,26.92,10.88z M22.82,8.33
		c-0.09,0.01-0.14,0.18-0.11,0.39c0.03,0.2,0.12,0.35,0.2,0.34c0.09-0.01,0.14-0.18,0.11-0.39C23,8.47,22.91,8.32,22.82,8.33z
		 M21.46,8.52c-0.09,0.01-0.14,0.18-0.11,0.39c0.03,0.2,0.12,0.35,0.2,0.34c0.09-0.01,0.14-0.18,0.11-0.39
		C21.64,8.66,21.55,8.51,21.46,8.52z M23.58,9.88c-0.09,0-0.16,0.16-0.16,0.37c0,0.2,0.07,0.37,0.16,0.37
		c0.09,0,0.16-0.16,0.16-0.37C23.74,10.04,23.67,9.88,23.58,9.88z M22.21,9.88c-0.09,0-0.16,0.16-0.16,0.37
		c0,0.2,0.07,0.37,0.16,0.37c0.09,0,0.16-0.16,0.16-0.37C22.37,10.04,22.3,9.88,22.21,9.88z M28.88,9.62
		c-0.08-0.02-0.2,0.11-0.25,0.31c-0.05,0.2-0.02,0.37,0.06,0.4c0.08,0.02,0.2-0.11,0.25-0.31C28.99,9.82,28.97,9.65,28.88,9.62z
		 M27.56,9.25c-0.08-0.02-0.2,0.11-0.25,0.31c-0.05,0.2-0.02,0.37,0.06,0.4c0.08,0.02,0.2-0.11,0.25-0.31
		C27.67,9.45,27.65,9.27,27.56,9.25z M21.09,9.34c-0.09,0-0.16,0.16-0.16,0.37c0,0.2,0.07,0.37,0.16,0.37
		c0.09,0,0.16-0.16,0.16-0.37C21.25,9.5,21.18,9.34,21.09,9.34z M19.72,9.34c-0.09,0-0.16,0.16-0.16,0.37c0,0.2,0.07,0.37,0.16,0.37
		c0.09,0,0.16-0.16,0.16-0.37C19.88,9.5,19.81,9.34,19.72,9.34z M24.08,7.9c-0.09-0.01-0.18,0.15-0.2,0.35
		c-0.02,0.2,0.03,0.37,0.12,0.38c0.09,0.01,0.18-0.15,0.2-0.35C24.22,8.08,24.17,7.91,24.08,7.9z"/>
	<path class="st15" d="M19.58,17.97c-0.46,0.34-1.02,0.27-1.31-0.25c-0.04-0.08-0.1-0.13-0.18-0.17c-0.15-0.07-0.38-0.06-0.55-0.07
		c-0.31-0.01-0.57-0.07-0.78-0.27v0.29c0.21,0.24,0.5,0.3,0.83,0.32c0.17,0.01,0.4,0,0.55,0.07c0.08,0.04,0.14,0.09,0.18,0.17
		c0.29,0.51,0.85,0.58,1.31,0.25c0.26-0.19,0.62-0.44,0.93-0.52c0.14-0.04,0.27-0.04,0.4,0.03c0.07,0.04,0.14,0.1,0.19,0.16
		c0.08,0.08,0.16,0.15,0.24,0.22c0.24,0.2,0.5,0.3,0.82,0.3c0.43,0,0.78-0.09,1.17-0.27c0.32-0.15,0.61-0.31,0.95-0.43
		c0.49-0.17,1.05-0.24,1.57-0.29c0.63-0.06,1.27-0.07,1.9-0.06c0.9,0.01,1.79,0.06,2.69,0.1c0.35,0.02,0.71,0.03,1.06,0.04
		c0.21,0,0.45,0,0.66-0.02v-0.35c-0.23,0.03-0.48,0.03-0.71,0.03c-0.35,0-0.71-0.02-1.06-0.04c-0.9-0.04-1.79-0.09-2.69-0.1
		c-0.63-0.01-1.27,0.01-1.9,0.06c-0.52,0.05-1.07,0.12-1.57,0.29c-0.34,0.11-0.63,0.28-0.95,0.43c-0.39,0.18-0.74,0.27-1.17,0.27
		c-0.32,0-0.57-0.09-0.82-0.3c-0.08-0.07-0.16-0.15-0.24-0.22c-0.06-0.06-0.12-0.12-0.19-0.16c-0.13-0.08-0.26-0.07-0.4-0.03
		C20.2,17.54,19.84,17.78,19.58,17.97"/>
	<path class="st4" d="M17.22,18.94L17.22,18.94L17.22,18.94L17.22,18.94L17.22,18.94L17.22,18.94L17.22,18.94L17.22,18.94v0.01v0v0
		v0v0v0v0v0v0v0v0v0v0v0v0v0v0v0v0v0v0v0v0v0v0v0v0v0v0v0v0v0v0v0l0,0v0v0v0v0v0v0v0v0v0l0,0v0v0v0l0,0v0v0v0v0v0
		c0,0.95,0.05,2.11,1.68,2.11h11.18c1.63,0,1.67-1.16,1.68-2.11v0l0,0v0v0v0v0v0v0v0l0,0v0v0v0v0v0v0v0v0v0l0,0v0v0v0v0v0v0v0v0v0v0
		v0v0v0l0,0v0v0v0v0v0v0v0v0v0v0v0v0v0v0v0v0v0v0v0v0v0v0v0v0v0v0v0H17.22z M32.49,16.69v1.15c0,0.37-0.16,0.71-0.41,0.95v0.14
		c0,0.2,0,0.4-0.01,0.59c-0.02,0.38-0.09,0.77-0.28,1.1c-0.36,0.65-1.03,0.84-1.72,0.84H18.9c-0.69,0-1.36-0.19-1.72-0.84
		c-0.28-0.51-0.29-1.13-0.29-1.7v-0.14c-0.25-0.24-0.41-0.57-0.41-0.95v-1.28c0-0.04,0-0.08,0.01-0.12
		c-0.08-0.06-0.16-0.13-0.22-0.22c-0.04-0.06-0.08-0.13-0.11-0.2c-0.15-0.4-0.02-0.82,0.29-1.03c-0.03-0.05-0.05-0.11-0.06-0.16
		c-0.12-0.46,0.18-0.91,0.57-1.27v-0.72c0-7.88,15.07-7.88,15.07,0v0.56c0.12,0.08,0.24,0.17,0.35,0.26
		c0.38,0.29,0.63,0.78,0.44,1.27c-0.04,0.11-0.1,0.21-0.18,0.29c0.33,0.24,0.44,0.69,0.23,1.1c-0.04,0.07-0.08,0.13-0.13,0.19
		C32.66,16.59,32.58,16.65,32.49,16.69z M32.21,16.91v-0.13c-0.08,0.01-0.17,0.01-0.25,0l-6.8-1.11c-0.06,0.04-0.12,0.08-0.19,0.11
		c-0.01,0.03-0.02,0.05-0.04,0.07c-0.14,0.26-0.4,0.4-0.7,0.42l-7.23,0.32c-0.07,0-0.14,0-0.21-0.01l-0.02,0.25
		c0.42,0.67,1.3,0.07,1.66,0.69c0.25,0.44,0.7,0.44,1.04,0.19c1.91-1.4,1.5,0.16,2.7,0.16c0.89,0,1.3-0.43,2.06-0.69
		C26.44,16.43,31.1,17.09,32.21,16.91z M16.76,17.22v0.63c0,0.29,0.13,0.56,0.33,0.74h14.8c0.2-0.19,0.33-0.45,0.33-0.74v-0.62
		c-0.23,0.03-0.48,0.03-0.71,0.03c-0.35,0-0.71-0.02-1.06-0.04c-0.9-0.04-1.79-0.09-2.69-0.1c-0.63-0.01-1.27,0.01-1.9,0.06
		c-0.52,0.05-1.07,0.12-1.57,0.29c-0.34,0.11-0.63,0.28-0.95,0.43c-0.39,0.18-0.74,0.27-1.17,0.27c-0.32,0-0.57-0.09-0.82-0.3
		c-0.08-0.07-0.16-0.15-0.24-0.22c-0.06-0.06-0.12-0.12-0.19-0.16c-0.13-0.08-0.26-0.07-0.4-0.03c-0.31,0.08-0.67,0.33-0.93,0.52
		c-0.46,0.34-1.02,0.27-1.31-0.25c-0.04-0.08-0.1-0.13-0.18-0.17c-0.15-0.07-0.38-0.06-0.55-0.07
		C17.23,17.47,16.96,17.42,16.76,17.22z M16.82,16.23L16.82,16.23c0.01,0,0.01,0,0.02,0l0,0c0.01,0,0.02,0,0.03,0l0,0
		c0.01,0,0.02,0,0.03,0l0,0c0.01,0,0.02,0,0.03,0l0,0c0.01,0,0.02,0,0.03,0l0,0c0.01,0,0.02,0,0.03,0l7.23-0.32
		c0.01,0,0.02,0,0.03,0l0,0c0.01,0,0.02,0,0.03,0l0,0c0.01,0,0.02,0,0.03,0l0,0c0.01,0,0.02,0,0.03-0.01l0,0
		c0.01,0,0.02,0,0.03-0.01l0,0c0.01,0,0.02-0.01,0.02-0.01l0,0c0.01,0,0.02-0.01,0.02-0.01l0,0c0.01,0,0.01-0.01,0.02-0.01l0,0
		c0.01,0,0.01-0.01,0.02-0.01l0,0c0.01,0,0.01-0.01,0.02-0.01c-0.23-0.02-0.45-0.12-0.66-0.22c-0.28-0.15-0.55-0.32-0.84-0.46
		c-0.16-0.08-0.34-0.16-0.52-0.2L21.74,15c-0.04,0.02-0.08,0.04-0.12,0.06c-0.33,0.21-0.55,0.57-0.95,0.69
		c-0.4,0.12-0.77-0.09-1.07-0.35c-0.09-0.07-0.18-0.11-0.29-0.12c-0.3-0.03-0.78,0.17-1.08,0.25c-0.55,0.14-1.03,0.12-1.52-0.22
		c-0.02-0.01-0.03-0.02-0.05-0.04c-0.27,0.14-0.3,0.52-0.13,0.76l0,0.01c0,0.01,0.01,0.01,0.01,0.02l0,0c0,0,0.01,0.01,0.01,0.01
		l0,0l0,0l0,0l0,0l0,0l0,0l0,0l0,0l0,0l0,0l0,0l0,0l0,0l0,0l0,0l0,0l0,0l0,0l0,0l0,0l0,0l0,0l0,0l0,0l0,0l0,0l0,0l0,0l0,0l0,0l0,0
		l0,0l0,0l0,0l0,0l0,0l0,0l0,0l0,0l0,0l0,0l0,0l0,0l0,0l0,0l0,0l0,0l0,0l0,0l0,0l0,0l0,0l0,0l0,0l0,0l0,0l0,0l0,0l0,0l0,0l0,0l0,0
		l0,0l0,0l0,0l0,0l0,0l0,0l0,0l0,0l0,0l0,0l0,0l0,0l0,0l0,0l0,0l0,0l0,0l0,0l0,0l0,0l0,0l0,0C16.65,16.16,16.73,16.2,16.82,16.23z
		 M17.28,12.85v0.52h14.4v-0.52C31.68,5.43,17.28,5.43,17.28,12.85z M32.17,13.94c-0.1-0.08-0.21-0.15-0.31-0.23H17.29
		c-0.61,0.52-0.79,1.02-0.38,1.3c0.69,0.49,1.36,0.1,1.97-0.04c-0.25-0.11-0.58-0.24-0.97-0.38c0.54,0.03,1.17,0.11,1.67,0.39
		c0.08,0.03,0.16,0.08,0.24,0.15c0.87,0.76,1.06-0.11,1.76-0.44c0.51-0.3,1.15-0.37,1.7-0.41c-0.33,0.12-0.61,0.23-0.85,0.33
		c0.2,0.04,0.43,0.12,0.69,0.25c0.95,0.47,1.63,1.18,2.23,0.04c0.17-0.16,0.33-0.25,0.49-0.3c-0.26-0.12-0.61-0.26-1.03-0.41
		c0.59,0.04,1.28,0.12,1.8,0.47c0.31,0.13,0.6,0.32,0.91,0.41c1.71,0.45,1.97-0.15,2.47-0.34c-0.25-0.11-0.55-0.23-0.92-0.36
		c0.55,0.03,1.18,0.11,1.68,0.4c0.02,0.01,0.05,0.02,0.07,0.03C32.14,15.88,33.09,14.64,32.17,13.94z M25.61,15.12
		c-0.05,0.09-0.1,0.17-0.16,0.25l1.13,0.18l5.43,0.88c0.07,0.01,0.13,0.01,0.19,0v0c0.04-0.01,0.08-0.02,0.12-0.04l0,0l0,0l0,0l0,0
		l0,0l0,0l0,0l0,0l0,0l0,0l0,0l0,0l0,0l0,0l0,0l0,0l0,0l0,0l0,0l0,0l0,0l0,0l0,0l0,0l0,0l0,0l0,0l0,0l0,0l0,0l0,0l0,0l0,0l0,0l0,0
		l0,0l0,0l0,0l0,0l0,0l0,0l0,0l0,0l0,0l0,0l0,0l0,0l0,0l0,0l0,0l0,0l0,0l0,0l0,0l0,0l0,0l0,0l0,0l0,0l0,0l0,0l0,0l0,0l0,0l0,0l0,0
		l0,0l0,0l0,0l0,0l0,0l0,0l0,0l0,0l0,0l0,0l0,0l0,0l0.01,0l0,0l0,0l0,0l0,0l0,0l0,0l0,0l0,0l0,0c0,0,0,0,0.01,0c0,0,0,0,0.01,0
		c0,0,0.01-0.01,0.01-0.01c0,0,0,0,0.01-0.01c0,0,0.01-0.01,0.01-0.01c0,0,0.01,0,0.01-0.01c0,0,0.01-0.01,0.01-0.01
		c0,0,0.01,0,0.01-0.01c0,0,0.01-0.01,0.01-0.01c0,0,0.01-0.01,0.01-0.01c0,0,0.01-0.01,0.01-0.01c0,0,0.01-0.01,0.01-0.01
		c0,0,0-0.01,0.01-0.01c0,0,0.01-0.01,0.01-0.01c0,0,0,0,0.01-0.01c0,0,0.01-0.01,0.01-0.01c0,0,0,0,0.01-0.01
		c0,0,0.01-0.01,0.01-0.01c0,0,0,0,0-0.01l0,0l0,0c0.18-0.25,0.15-0.65-0.18-0.77c-0.12,0.06-0.25,0.1-0.39,0.11
		c-0.41,0.04-0.82-0.13-1.16-0.37l-0.72-0.12c-0.1,0.05-0.21,0.12-0.3,0.18c-0.16,0.1-0.32,0.18-0.5,0.23
		c-0.58,0.18-1.24,0.07-1.81-0.08c-0.23-0.06-0.44-0.17-0.65-0.27C26.33,14.9,26.03,14.76,25.61,15.12z"/>
	<path class="st13" d="M31.2,18.94H17.22c0,0.97,0,2.2,1.68,2.2h0.43c-0.89-0.23-1-0.97-1.01-1.65h12.86L31.2,18.94z"/>
</g>
<g>
	<g>
		
			<linearGradient id="SVGID_00000117668149506065213760000002804629491030997927_" gradientUnits="userSpaceOnUse" x1="0.1527" y1="44.4786" x2="13.4839" y2="31.1474">
			<stop  offset="0.3744" style="stop-color:#1B1219"/>
			<stop  offset="0.601" style="stop-color:#3A150E"/>
			<stop  offset="0.8547" style="stop-color:#571805"/>
			<stop  offset="1" style="stop-color:#621901"/>
		</linearGradient>
		<path style="fill:url(#SVGID_00000117668149506065213760000002804629491030997927_);" d="M12.92,31.05
			c0.3,0.61,0.46,1.14,0.47,1.58c-0.01,0.51-0.19,1.05-0.55,1.64c-0.26,0.42-0.68,0.88-1.25,1.36c-0.57,0.48-1.21,0.92-1.9,1.31
			c-0.33,0.18-0.49,0.27-0.49,0.28c0,0.01,0.11,0.05,0.34,0.12c0.66,0.22,1.17,0.56,1.54,1.03c0.26,0.32,0.52,0.79,0.79,1.41
			c0.48,1.15,0.33,2.38-0.47,3.68c-0.42,0.7-1.02,1.34-1.81,1.93c-0.78,0.59-1.6,1.02-2.44,1.3c-0.7,0.22-1.31,0.34-1.81,0.36
			c-0.59,0.02-1.2-0.06-1.82-0.26c-0.26-0.08-0.44-0.11-0.54-0.08c-0.09,0.01-0.18,0.01-0.27-0.02c-0.09-0.03-0.13-0.06-0.14-0.1
			c-0.01-0.04-0.03-0.06-0.08-0.06c-0.03,0-0.13-0.05-0.31-0.16c-0.18-0.11-0.29-0.18-0.34-0.22c-0.02-0.01-0.03-0.03-0.05-0.05
			c-0.02-0.02-0.04-0.04-0.08-0.07C1.69,46.02,1.67,46,1.65,45.97c-0.24-0.22-0.5-0.64-0.77-1.25C0.7,44.34,0.6,44,0.58,43.71
			c-0.03-0.44,0.03-0.75,0.17-0.92c0.11-0.12,0.19-0.14,0.27-0.06c0.02,0.06,0.02,0.11,0,0.16c-0.02,0.05-0.02,0.08,0,0.09
			c0.02,0.01,0.06,0,0.1-0.04c0.05-0.05,0.11-0.04,0.16,0.02c0.01,0.04,0,0.07-0.01,0.07l0.03,0.02c0.05,0.04,0.09,0.1,0.13,0.19
			c0.04,0.09,0.07,0.14,0.1,0.13c0.07-0.01,0.18-0.33,0.32-0.96c0.08-0.32,0.23-0.85,0.46-1.59c0.23-0.74,0.44-1.33,0.62-1.77
			c0.01-0.03,0.04-0.11,0.08-0.22c0.04-0.12,0.09-0.23,0.14-0.34c0.05-0.11,0.08-0.21,0.12-0.31c0.28-0.72,0.62-1.55,1.03-2.49
			c0.16-0.36,0.26-0.6,0.29-0.71c0.16-0.39,0.26-0.6,0.3-0.62c0.03-0.02,0.03-0.04,0.01-0.06c-0.02-0.02-0.01-0.03,0.02-0.04
			c0.03,0,0.04-0.02,0.02-0.05c-0.02-0.03,0-0.06,0.05-0.08c0.05-0.03,0.06-0.06,0.03-0.08c-0.03-0.03-0.02-0.04,0.02-0.05
			c0.04-0.01,0.04-0.02,0.02-0.05c-0.03-0.03-0.02-0.06,0.02-0.1c0.04-0.04,0.08-0.13,0.12-0.27c0.18-0.49,0.32-0.86,0.44-1.11
			c0.07-0.16,0.1-0.24,0.08-0.26c-0.02-0.01-0.17,0.05-0.47,0.2c-0.29,0.15-0.54,0.28-0.76,0.42c-0.52,0.3-0.87,0.61-1.04,0.93
			c-0.15,0.27-0.34,0.44-0.6,0.49c-0.09,0.01-0.15,0.01-0.17-0.01c-0.03-0.02-0.05-0.09-0.09-0.2c-0.02-0.12-0.04-0.19-0.06-0.21
			c-0.03-0.03-0.06-0.1-0.09-0.21c-0.05-0.17-0.09-0.26-0.11-0.26c-0.02,0-0.05-0.09-0.11-0.26c-0.23-0.58-0.03-1.17,0.62-1.78
			c0.16-0.16,0.45-0.36,0.85-0.62c0.41-0.26,0.75-0.44,1.02-0.56C5,30,5.18,29.91,5.26,29.87c0.1-0.06,0.43-0.2,0.98-0.42
			c0.56-0.22,0.91-0.35,1.06-0.38c0.18-0.05,0.29-0.09,0.35-0.12c0.12-0.03,0.42-0.08,0.9-0.14c0.48-0.06,0.82-0.08,1.02-0.07
			c0.55,0.01,0.98,0.07,1.3,0.18c0.31,0.11,0.63,0.3,0.96,0.58C12.2,29.83,12.56,30.34,12.92,31.05z M10.56,39.57
			c-0.55-0.41-1.55-0.62-3-0.63c-0.29,0-0.69,0.03-1.19,0.1c-0.5,0.07-0.83,0.14-0.97,0.2c-0.07,0.04-0.17,0.22-0.29,0.53
			c-0.24,0.66-0.55,1.57-0.92,2.74c-0.37,1.17-0.56,1.83-0.57,1.98c-0.01,0.05,0,0.08,0.01,0.1c0.02,0.02,0.05,0.03,0.08,0.03
			c0.04,0,0.11,0,0.22,0c0.2,0,0.36,0,0.48,0c0.4-0.01,0.87-0.08,1.41-0.22c0.78-0.21,1.58-0.58,2.41-1.1
			c0.45-0.29,0.93-0.76,1.45-1.41c0.2-0.24,0.37-0.48,0.53-0.73c0.16-0.25,0.28-0.49,0.37-0.72c0.09-0.23,0.14-0.42,0.15-0.57
			C10.74,39.77,10.68,39.67,10.56,39.57z M4.17,30.76c1.08-0.6,2.14-1.05,3.18-1.36l0.28-0.13c-0.53,0.06-1.37,0.37-2.53,0.93
			c-1.06,0.51-1.77,0.94-2.13,1.3l0.32-0.18C3.55,31.14,3.85,30.95,4.17,30.76z M7.06,44.34c0.23-0.09,0.5-0.23,0.79-0.4
			s0.56-0.35,0.78-0.51c0.22-0.16,0.35-0.28,0.39-0.34L8.83,43.2c-0.32,0.24-0.73,0.49-1.22,0.76c-0.5,0.27-0.94,0.47-1.31,0.6
			c-0.26,0.08-0.41,0.13-0.44,0.15l0.36-0.05C6.52,44.56,6.8,44.45,7.06,44.34z M4.84,35.04c-0.03,0.02-0.04,0.04-0.04,0.07
			c0.01,0.09,0.03,0.08,0.06-0.03L4.84,35.04z M4.96,34.78c-0.02,0-0.03,0.03-0.06,0.1c-0.02,0.06-0.03,0.09-0.01,0.09
			c0.01,0,0.03-0.03,0.06-0.1C4.97,34.8,4.98,34.77,4.96,34.78z M5.12,34.42c-0.02,0-0.04,0.04-0.07,0.1
			c-0.03,0.06-0.04,0.09-0.02,0.09c0.01,0,0.04-0.03,0.07-0.1C5.13,34.45,5.13,34.42,5.12,34.42z M7.38,45.95l0.06-0.03
			c-0.02-0.01-0.05-0.01-0.09,0.01L7.38,45.95z M7.7,45.81l0.04-0.03c-0.02-0.01-0.05-0.01-0.09,0.01L7.7,45.81z M10.61,33.99
			l-0.3,0.18c-0.59,0.48-1.15,0.88-1.67,1.19c-0.69,0.41-1.39,0.76-2.1,1.05c-0.12,0.05-0.17,0.08-0.17,0.11
			c0,0.03,0.02,0.03,0.05,0.02c0.14-0.06,0.42-0.19,0.84-0.39c0.86-0.42,1.56-0.81,2.1-1.19C9.97,34.55,10.38,34.23,10.61,33.99z
			 M11.89,31.69c0.03-0.12-0.01-0.22-0.11-0.3c-0.24-0.17-0.58-0.29-1.03-0.35c-0.71-0.08-1.37-0.05-1.98,0.1l-0.44,0.11l-0.34,0.98
			c-0.28,0.75-0.72,1.93-1.32,3.53l-0.17,0.43l0.13-0.04c0.1-0.04,0.46-0.23,1.09-0.55c1.04-0.55,1.91-1.13,2.62-1.75
			C11.28,33.03,11.79,32.31,11.89,31.69z M7.88,29.22l0,0.02l0.07-0.01l0.09-0.03C7.97,29.19,7.92,29.19,7.88,29.22z M9.1,36.65
			c-0.03,0-0.07,0.02-0.11,0.06c-0.04,0.04-0.05,0.05-0.02,0.05c0.03,0,0.07-0.02,0.11-0.06C9.12,36.66,9.13,36.65,9.1,36.65z
			 M9.31,36.58c0.05-0.04,0.05-0.05,0.02-0.05c-0.04,0.01-0.08,0.03-0.12,0.06l-0.02,0.05C9.22,36.63,9.26,36.61,9.31,36.58z
			 M9.53,36.46c0.04-0.04,0.05-0.05,0.02-0.05c-0.03,0-0.07,0.02-0.11,0.06l-0.02,0.05C9.46,36.51,9.49,36.49,9.53,36.46z"/>
		
			<linearGradient id="SVGID_00000047029185519024657110000012871747025730087852_" gradientUnits="userSpaceOnUse" x1="13.015" y1="42.2542" x2="21.0635" y2="34.2057">
			<stop  offset="0.3744" style="stop-color:#1B1219"/>
			<stop  offset="0.601" style="stop-color:#3A150E"/>
			<stop  offset="0.8547" style="stop-color:#571805"/>
			<stop  offset="1" style="stop-color:#621901"/>
		</linearGradient>
		<path style="fill:url(#SVGID_00000047029185519024657110000012871747025730087852_);" d="M21.03,34.24
			c0.11,0.01,0.17,0.07,0.18,0.17c0.01,0.06-0.24,0.77-0.73,2.13c-0.64,1.74-1.05,2.96-1.21,3.65c-0.19,0.74-0.25,1.2-0.2,1.39
			c0.03,0.09,0.03,0.14,0,0.18l0.01,0.04c-0.04,0.04-0.06,0.06-0.06,0.08c0,0.03-0.02,0.07-0.06,0.11
			c-0.05,0.04-0.09,0.07-0.12,0.07c-0.08,0.01-0.27-0.07-0.57-0.25c-0.31-0.18-0.5-0.32-0.57-0.41c-0.09-0.11-0.14-0.26-0.15-0.45
			c-0.03-0.29,0.02-0.71,0.15-1.25c0.04-0.18,0.05-0.27,0.03-0.27c0-0.01-0.02,0-0.05,0.04c-0.03,0.04-0.08,0.1-0.14,0.18
			c-0.06,0.07-0.12,0.15-0.18,0.24c-0.68,0.96-1.22,1.69-1.64,2.19c-0.46,0.57-0.85,0.89-1.17,0.97c-0.1,0.03-0.28-0.01-0.54-0.12
			c-0.47-0.22-0.8-0.45-0.99-0.71c-0.11-0.16-0.19-0.37-0.22-0.62c-0.03-0.25-0.03-0.47,0.02-0.67l0.07-0.34
			c0.07-0.4,0.14-0.67,0.23-0.83c0.02-0.05,0.03-0.09,0.03-0.13c-0.01-0.04,0.01-0.06,0.04-0.06l0.02-0.03
			c-0.02-0.01,0.06-0.24,0.22-0.69c0.17-0.45,0.3-0.78,0.39-1c0.59-1.35,0.92-2.05,0.99-2.12c0.01-0.02,0.05-0.08,0.11-0.18
			c0.06-0.11,0.09-0.17,0.09-0.18l0.02-0.05l0-0.02c0-0.03,0-0.04,0.02-0.03c0.04-0.04,0.07-0.07,0.09-0.09
			c0.02-0.03,0.04-0.05,0.06-0.09c0.02-0.03,0.03-0.06,0.05-0.08c0.01-0.02,0.02-0.04,0.01-0.06c0-0.01,0.05-0.13,0.17-0.36
			c0.11-0.22,0.18-0.35,0.21-0.39c0.04-0.05,0.06-0.09,0.05-0.11c0-0.02,0.02-0.06,0.07-0.12c0.05-0.06,0.12-0.15,0.19-0.26
			c0.08-0.11,0.13-0.18,0.18-0.2c0.06-0.04,0.19-0.03,0.4,0.02c0.21,0.05,0.32,0.11,0.33,0.17c0,0.01,0.05,0.03,0.13,0.06
			c0.09,0.03,0.14,0.05,0.16,0.08c0.02,0.03,0.06,0.04,0.11,0.05c0.05,0.01,0.1,0.03,0.15,0.08c0.04,0.05,0.04,0.17-0.01,0.36
			c-0.05,0.19-0.09,0.33-0.13,0.41c-0.08,0.18-0.16,0.22-0.24,0.12c-0.02-0.01-0.04-0.01-0.07,0.01c-0.05,0.1-0.24,0.48-0.58,1.15
			c-0.34,0.67-0.54,1.07-0.6,1.2c-0.06,0.13-0.16,0.37-0.31,0.71c-0.33,0.78-0.62,1.54-0.87,2.31c-0.21,0.68-0.3,1.04-0.26,1.06
			c0.02,0.01,0.4-0.47,1.15-1.45c0.47-0.6,0.94-1.25,1.42-1.96c0.59-0.83,1.11-1.53,1.56-2.11c0.2-0.28,0.46-0.65,0.77-1.11
			c0.31-0.46,0.48-0.73,0.52-0.81c0.01-0.05,0.05-0.07,0.11-0.08s0.1,0.02,0.09,0.08l-0.01,0.11l0.06-0.1
			c0.05-0.05,0.12-0.07,0.2-0.05c0.08,0.02,0.17,0.06,0.27,0.13c0.1,0.07,0.16,0.09,0.17,0.08l0.03,0.02c0,0.03,0.03,0.04,0.07,0.03
			c0.03,0,0.06,0,0.09,0.02c0.03,0.02,0.06,0.04,0.09,0.05s0.03,0.04,0.02,0.05L21.03,34.24z"/>
		
			<linearGradient id="SVGID_00000122713649254114999570000013823266861318833032_" gradientUnits="userSpaceOnUse" x1="19.5491" y1="40.5505" x2="27.9501" y2="32.1494">
			<stop  offset="0.3744" style="stop-color:#1B1219"/>
			<stop  offset="0.601" style="stop-color:#3A150E"/>
			<stop  offset="0.8547" style="stop-color:#571805"/>
			<stop  offset="1" style="stop-color:#621901"/>
		</linearGradient>
		<path style="fill:url(#SVGID_00000122713649254114999570000013823266861318833032_);" d="M28.02,32.3
			c0.22,0.15,0.35,0.25,0.39,0.31c0.04,0.06,0.03,0.16-0.03,0.28c-0.05,0.11-0.2,0.42-0.47,0.91c-0.68,1.27-1.15,2.4-1.43,3.39
			c-0.16,0.53-0.19,0.86-0.09,0.99c0.06,0.07,0.07,0.12,0.06,0.17c-0.02,0.05-0.05,0.07-0.11,0.08c-0.03,0-0.04,0.02-0.02,0.05
			c0.02,0.01,0.02,0.03,0,0.06c-0.02,0.03-0.04,0.05-0.07,0.07c-0.03,0.02-0.06,0.04-0.11,0.06c-0.04,0.01-0.19-0.08-0.45-0.25
			c-0.4-0.27-0.66-0.54-0.75-0.8c-0.1-0.26-0.08-0.65,0.04-1.15l0.06-0.37l-0.28,0.44c-0.91,1.35-1.68,2.88-2.32,4.58
			c-0.18,0.47-0.29,0.75-0.32,0.83c-0.05,0.1-0.07,0.16-0.07,0.19c0.02,0.01-0.01,0.08-0.09,0.19c-0.16,0.2-0.27,0.23-0.33,0.09
			c-0.02-0.06-0.03-0.11-0.02-0.17l0.03-0.09l-0.06,0.1c-0.05,0.07-0.1,0.1-0.15,0.09c-0.13-0.04-0.23-0.11-0.3-0.2
			c0.01,0,0.01-0.02-0.02-0.05c-0.03-0.03-0.06-0.07-0.09-0.1c-0.04-0.03-0.06-0.05-0.08-0.05c-0.02-0.01-0.02-0.06,0-0.16
			c0.04-0.12,0.05-0.17,0.03-0.14c-0.02,0-0.04,0.02-0.06,0.05c-0.05,0.1-0.08,0.1-0.09,0.01c0-0.03,0-0.07,0-0.13
			c0-0.1-0.03-0.2-0.09-0.3c-0.12-0.19-0.16-0.37-0.12-0.54c0.03-0.14,0.04-0.21,0.04-0.23c-0.01-0.04,0.01-0.13,0.06-0.25
			c0-0.01,0-0.04,0.01-0.08c0.01-0.04,0.02-0.08,0.03-0.14c0.01-0.05,0.02-0.11,0.03-0.17c0.01-0.06,0.03-0.13,0.05-0.21
			c0.02-0.08,0.04-0.15,0.06-0.23c0.1-0.46,0.22-0.86,0.34-1.21c0.3-0.92,0.5-1.49,0.61-1.71c0.02-0.06,0.05-0.16,0.1-0.28
			c0.03-0.11,0.06-0.19,0.1-0.25c0.04-0.06,0.13-0.3,0.27-0.72c0.12-0.36,0.23-0.67,0.33-0.94c0.09-0.22,0.12-0.37,0.08-0.43
			c0-0.03-0.01-0.05-0.03-0.06c-0.02-0.01-0.03-0.01-0.04-0.01c-0.01,0.01-0.02,0-0.05-0.03c-0.03-0.03-0.05-0.06-0.07-0.1
			c-0.02-0.04-0.03-0.08-0.04-0.11c-0.02-0.06-0.04-0.08-0.06-0.08c-0.03,0-0.05-0.11-0.05-0.33c0.01-0.06,0.06-0.18,0.17-0.35
			c0.11-0.17,0.21-0.3,0.32-0.39c0.19-0.17,0.32-0.23,0.39-0.17c0.02,0.03,0.05,0.04,0.1,0.03c0.09-0.03,0.35,0.09,0.78,0.36
			c0.17,0.11,0.27,0.18,0.32,0.22c0.04,0.04,0.07,0.09,0.08,0.17c0.02,0.18-0.04,0.57-0.2,1.19l-0.17,0.58l0.25-0.33
			c0.71-0.93,1.48-1.71,2.31-2.33c0.19-0.15,0.32-0.22,0.38-0.23C27.3,31.9,27.6,32.02,28.02,32.3z"/>
		
			<linearGradient id="SVGID_00000076605253380484195830000014545417730021644202_" gradientUnits="userSpaceOnUse" x1="25.3322" y1="45.1366" x2="37.9987" y2="32.4701">
			<stop  offset="0.3744" style="stop-color:#1B1219"/>
			<stop  offset="0.601" style="stop-color:#3A150E"/>
			<stop  offset="0.8547" style="stop-color:#571805"/>
			<stop  offset="1" style="stop-color:#621901"/>
		</linearGradient>
		<path style="fill:url(#SVGID_00000076605253380484195830000014545417730021644202_);" d="M37.08,31.97
			c0.09-0.03,0.14-0.04,0.17-0.03c0.02,0,0.04,0.04,0.05,0.09c0,0.01,0,0.06,0,0.13c0,0.03-0.08,0.11-0.24,0.26
			c-0.41,0.35-0.8,0.78-1.17,1.28c-0.4,0.53-0.7,1.09-0.91,1.67c-0.4,1.16-0.63,2.42-0.68,3.8c-0.02,0.31-0.04,0.47-0.07,0.46
			l0.01,0.04c0.04,0.1,0.03,0.54-0.04,1.32c-0.03,0.36-0.04,0.56-0.03,0.58c0.03,0.19-0.05,0.65-0.22,1.37
			c-0.25,0.96-0.6,1.76-1.05,2.4c-0.45,0.64-1.04,1.18-1.76,1.61c-0.21,0.12-0.47,0.24-0.76,0.35c-0.3,0.12-0.59,0.21-0.87,0.28
			c-0.28,0.07-0.51,0.11-0.69,0.12c-0.47-0.01-0.91-0.15-1.3-0.42c-0.16-0.13-0.37-0.38-0.64-0.76c-0.27-0.38-0.44-0.62-0.5-0.73
			c-0.15-0.31-0.24-0.64-0.26-0.99c-0.03-0.35,0-0.53,0.08-0.52c0.02,0.01,0.04,0.03,0.05,0.06c0.02,0.04,0.04,0.05,0.05,0.04
			l0.03,0.06c0.01,0.06,0.04,0.1,0.09,0.12c0.05,0.02,0.07,0.01,0.06-0.03c-0.01-0.07,0.03-0.09,0.11-0.06l0.08,0.06
			c0.04,0.04,0.06,0.05,0.07,0.03l0.03,0.04l0.05,0.02c0.01-0.03,0.04-0.02,0.09,0.02c0.05,0.04,0.08,0.08,0.08,0.1
			c0,0.02,0.02,0.03,0.04,0.03c0.02,0,0.05,0.04,0.07,0.12l0.08,0.1c0.01-0.02,0.02-0.01,0.03,0.02c0.03,0.11,0.06,0.17,0.09,0.17
			c0.03,0.01,0.05,0.06,0.07,0.15c0.01,0.09,0.03,0.13,0.06,0.12c0.03,0,0.07,0,0.12,0.03c0.15,0.11,0.52,0.08,1.09-0.11
			c0.62-0.19,1.09-0.4,1.44-0.61c0.34-0.22,0.69-0.55,1.04-0.98c0.48-0.59,0.88-1.43,1.18-2.53c0.17-0.62,0.31-1.63,0.4-3.04
			c0.03-0.24,0.05-0.48,0.08-0.73c-0.33,0.48-0.81,1.1-1.43,1.87c-0.39,0.49-0.69,0.83-0.89,1.03c-0.2,0.2-0.43,0.36-0.69,0.49
			c-0.3,0.16-0.54,0.2-0.74,0.13c-0.08-0.02-0.26-0.13-0.54-0.33c-0.28-0.2-0.46-0.34-0.55-0.44c-0.2-0.2-0.34-0.41-0.44-0.65
			c-0.12-0.3-0.16-0.67-0.12-1.11c0.04-0.44,0.16-0.99,0.38-1.65c0.14-0.41,0.22-0.64,0.25-0.7c0.11-0.28,0.25-0.59,0.42-0.91
			c0.16-0.29,0.28-0.52,0.36-0.7c0.31-0.65,0.67-1.22,1.09-1.69c0.41-0.46,0.75-0.78,1.01-0.97c0.26-0.19,0.52-0.29,0.78-0.31
			c0.44-0.03,0.94,0.17,1.51,0.61c0.21,0.16,0.34,0.31,0.42,0.43c0.07,0.12,0.13,0.32,0.16,0.6c0.02,0.16,0.05,0.28,0.07,0.35
			c0.11-0.28,0.32-0.6,0.62-0.96c0.28-0.37,0.61-0.7,0.96-0.99c0.36-0.3,0.65-0.47,0.87-0.51c0.12-0.03,0.22-0.02,0.29,0.04
			c0.08,0.06,0.12,0.08,0.14,0.08c0.06-0.01,0.18,0.12,0.35,0.4c0.08,0.14,0.13,0.21,0.14,0.2c0.09-0.01,0.08,0.03-0.03,0.12
			c-0.02,0-0.03,0.01-0.04,0.03l-0.13,0.08C36.99,32.02,37.02,32.01,37.08,31.97z M27.99,36.68c0.17-0.45,0.31-0.81,0.42-1.06
			c0.36-0.78,0.7-1.39,0.99-1.83c0.3-0.44,0.69-0.92,1.19-1.44c0.19-0.2,0.28-0.32,0.27-0.35l-0.02,0c0,0.03-0.01,0.05-0.03,0.05
			c-0.02,0-0.15,0.14-0.39,0.4c-0.24,0.26-0.43,0.48-0.57,0.65c-0.37,0.44-0.75,1.05-1.16,1.85c-0.41,0.79-0.7,1.48-0.86,2.05
			c-0.06,0.22-0.09,0.33-0.09,0.35C27.74,37.35,27.83,37.13,27.99,36.68z M31.62,36.24c0.05-0.07,0.08-0.1,0.08-0.09
			c0,0.01,0.03-0.04,0.1-0.14c0.06-0.1,0.13-0.21,0.22-0.34c0.08-0.13,0.15-0.24,0.2-0.32c0.03-0.08,0.17-0.28,0.4-0.61l0.34-0.52
			l-0.06-0.1c-0.04-0.08-0.07-0.13-0.09-0.14c-0.05-0.02-0.12-0.28-0.22-0.77l-0.09-0.46l-0.11,0.02c-0.38,0.13-0.87,0.6-1.48,1.41
			c-0.55,0.75-1.04,1.65-1.47,2.7c-0.43,1.06-0.63,1.9-0.62,2.54c0,0.09,0.01,0.14,0.03,0.14c0.02,0,0.08-0.03,0.16-0.1
			c0.22-0.18,0.37-0.33,0.46-0.47c0.05-0.08,0.27-0.34,0.65-0.78c0.35-0.45,0.7-0.91,1.05-1.37c0.1-0.13,0.19-0.25,0.27-0.35
			C31.51,36.39,31.57,36.31,31.62,36.24z M30.43,34.11c-0.13,0.18-0.18,0.27-0.17,0.27c0.01,0,0.09-0.09,0.21-0.28
			c0.05-0.08,0.11-0.17,0.17-0.27C30.63,33.84,30.56,33.93,30.43,34.11z"/>
		
			<linearGradient id="SVGID_00000054961477934515168990000005413023175632390022_" gradientUnits="userSpaceOnUse" x1="36.0356" y1="38.4855" x2="42.5959" y2="31.9251">
			<stop  offset="0.3744" style="stop-color:#1B1219"/>
			<stop  offset="0.601" style="stop-color:#3A150E"/>
			<stop  offset="0.8547" style="stop-color:#571805"/>
			<stop  offset="1" style="stop-color:#621901"/>
		</linearGradient>
		<path style="fill:url(#SVGID_00000054961477934515168990000005413023175632390022_);" d="M43.99,34.33l0.03,0.02
			c-0.03,0.11-0.09,0.24-0.17,0.4c-0.12,0.25-0.46,0.73-1.03,1.43c-0.57,0.7-1.1,1.3-1.59,1.82c-0.79,0.82-1.52,1.34-2.19,1.53
			c-0.25,0.06-0.52,0.1-0.81,0.09c-0.26-0.01-0.48-0.05-0.67-0.12c-0.19-0.07-0.45-0.22-0.78-0.44c-0.42-0.27-0.73-0.54-0.92-0.81
			c-0.17-0.26-0.28-0.59-0.32-0.98c-0.05-0.54,0.06-1.18,0.33-1.92c0.26-0.74,0.64-1.43,1.13-2.08c0.18-0.25,0.27-0.4,0.28-0.44
			c0.02-0.06,0.15-0.24,0.37-0.54c0.23-0.3,0.42-0.53,0.58-0.68c0.52-0.56,0.96-0.92,1.34-1.08c0.42-0.18,0.89-0.15,1.41,0.09
			c0.16,0.08,0.39,0.22,0.67,0.43c0.28,0.21,0.46,0.36,0.53,0.45c0.11,0.16,0.12,0.42,0.02,0.78c-0.29,1.02-0.87,1.98-1.75,2.88
			c-0.31,0.3-0.56,0.49-0.74,0.59c-0.18,0.1-0.36,0.13-0.54,0.08c-0.1-0.03-0.25-0.12-0.46-0.28c-0.21-0.16-0.37-0.29-0.48-0.41
			L38.1,35l-0.16,0.31c-0.23,0.46-0.4,0.94-0.51,1.44c-0.11,0.5-0.15,0.92-0.1,1.25c0.03,0.22,0.06,0.34,0.09,0.37
			c0.03,0.03,0.13,0.02,0.31-0.02c0.33-0.08,0.65-0.22,0.98-0.44c0.33-0.22,0.77-0.57,1.33-1.07c0.19-0.18,0.48-0.48,0.87-0.9
			c0.39-0.43,0.75-0.84,1.09-1.25c0.33-0.4,0.54-0.67,0.61-0.8c0.09-0.13,0.17-0.18,0.23-0.14c0.01,0.07-0.13,0.3-0.41,0.68
			c-0.27,0.37-0.8,0.98-1.6,1.83l-0.71,0.81c0.01-0.02,0.03-0.03,0.06-0.05c0.07-0.07,0.15-0.15,0.24-0.25
			c0.09-0.09,0.2-0.21,0.31-0.33c0.11-0.13,0.23-0.26,0.37-0.4c0.13-0.14,0.26-0.28,0.39-0.42c0.12-0.14,0.25-0.29,0.37-0.44
			c0.12-0.15,0.24-0.29,0.34-0.42c0.1-0.13,0.2-0.25,0.29-0.36c0.09-0.12,0.16-0.21,0.21-0.28c0.16-0.25,0.28-0.37,0.34-0.36
			c0.05,0.01,0.09,0.02,0.14,0.04c0.05,0.02,0.09,0.03,0.13,0.05c0.04,0.02,0.07,0.04,0.1,0.06c0.03,0.03,0.04,0.05,0.04,0.06
			c0,0.03,0.04,0.05,0.11,0.05c0.07,0.01,0.1,0.02,0.1,0.03c-0.01,0.02,0.01,0.04,0.03,0.08c0.03,0.04,0.03,0.08,0,0.11
			c-0.04,0.05-0.05,0.08-0.03,0.09l0.06-0.05c0.04-0.04,0.09-0.03,0.15,0C43.94,34.34,43.97,34.35,43.99,34.33z M36.16,35.22
			c0.05-0.11,0.14-0.29,0.27-0.53c0.33-0.69,0.78-1.39,1.33-2.13c0.41-0.56,0.84-1.04,1.29-1.43l0.28-0.26
			c-0.03,0-0.08,0.04-0.15,0.11c-0.36,0.26-0.78,0.68-1.26,1.27c-0.48,0.59-0.89,1.2-1.25,1.83c-0.12,0.21-0.26,0.46-0.4,0.76
			c-0.14,0.3-0.21,0.46-0.2,0.51L36.16,35.22z M40.18,32.19c-0.09,0.09-0.24,0.25-0.44,0.47c-0.2,0.23-0.39,0.47-0.59,0.72
			c-0.19,0.25-0.35,0.47-0.46,0.64c-0.15,0.23-0.22,0.37-0.19,0.43c0.02,0.06,0.04,0.08,0.06,0.08c0.07-0.02,0.12-0.01,0.14,0.05
			c0.04,0.04,0.11,0.07,0.22,0.08l0.2-0.21c0.63-0.62,1.06-1.16,1.29-1.61c0.1-0.19,0.19-0.41,0.29-0.66
			c0.09-0.25,0.13-0.38,0.12-0.4C40.74,31.74,40.53,31.87,40.18,32.19z M39.4,34.48c0.48-0.5,0.8-0.89,0.96-1.16
			c0.06-0.1,0.13-0.22,0.2-0.36s0.13-0.28,0.19-0.39c0.05-0.12,0.08-0.19,0.07-0.22L40.7,32.6c-0.15,0.32-0.3,0.58-0.44,0.78
			c-0.14,0.2-0.36,0.47-0.67,0.81c-0.28,0.31-0.43,0.48-0.46,0.51l0.02,0C39.2,34.67,39.28,34.6,39.4,34.48z M39.14,32.62
			c-0.02,0-0.04,0.03-0.08,0.09c-0.04,0.06-0.05,0.08-0.03,0.08c0.01,0,0.04-0.03,0.08-0.09C39.14,32.65,39.16,32.62,39.14,32.62z
			 M39.36,32.39c-0.09,0.1-0.12,0.15-0.09,0.15l0.1-0.13l0.09-0.15L39.36,32.39z M40.89,34.14c0.01,0,0.06-0.05,0.13-0.15
			c0.07-0.1,0.1-0.15,0.09-0.15c-0.01,0-0.05,0.05-0.13,0.15C40.91,34.09,40.87,34.14,40.89,34.14z"/>
		
			<linearGradient id="SVGID_00000115493032363430537970000007389914351835466651_" gradientUnits="userSpaceOnUse" x1="6.6256" y1="51.878" x2="39.5343" y2="18.9693">
			<stop  offset="0.3744" style="stop-color:#1B1219"/>
			<stop  offset="0.601" style="stop-color:#3A150E"/>
			<stop  offset="0.8547" style="stop-color:#571805"/>
			<stop  offset="1" style="stop-color:#621901"/>
		</linearGradient>
		<path style="fill:url(#SVGID_00000115493032363430537970000007389914351835466651_);" d="M49.87,29.34
			c-0.1-0.15-0.25-0.29-0.57-0.5c-0.5-0.33-0.87-0.48-1.19-0.48c-0.07,0-0.13,0.01-0.19,0.02c-0.18,0.03-0.36,0.13-0.65,0.35
			c-0.42,0.32-0.83,0.67-1.22,1.06c-0.05-0.12-0.13-0.22-0.22-0.31c-0.06-0.05-0.15-0.12-0.41-0.29c-0.53-0.33-0.79-0.43-1-0.45
			c-0.09-0.04-0.19-0.06-0.3-0.06c-0.32,0-0.57,0.19-0.75,0.35c-0.16,0.14-0.31,0.31-0.45,0.54c-0.17,0.27-0.24,0.45-0.26,0.62
			l0,0.04v0.04c0,0.34,0.07,0.57,0.17,0.72c0.01,0.03,0.03,0.06,0.04,0.09c0.02,0.04,0.05,0.09,0.07,0.13
			c-0.03,0.07-0.05,0.15-0.08,0.23c-0.03-0.1-0.08-0.2-0.14-0.29l-0.02-0.03c-0.08-0.1-0.22-0.25-0.66-0.57
			c-0.31-0.23-0.56-0.39-0.78-0.5c-0.38-0.18-0.76-0.26-1.12-0.26c-0.28,0-0.56,0.06-0.82,0.16c-0.47,0.19-0.97,0.6-1.56,1.23
			c-0.04,0.04-0.08,0.08-0.12,0.12c-0.02-0.01-0.03-0.03-0.05-0.04c0,0-0.01-0.01-0.01-0.01c-0.19-0.29-0.38-0.56-0.67-0.66
			c-0.16-0.11-0.35-0.17-0.55-0.17c-0.09,0-0.18,0.01-0.27,0.03c-0.33,0.07-0.69,0.28-1.14,0.65c-0.36,0.3-0.69,0.63-0.97,0.98
			c-0.11-0.14-0.25-0.27-0.44-0.42c-0.65-0.51-1.25-0.76-1.82-0.76c-0.05,0-0.09,0-0.14,0.01c-0.37,0.03-0.74,0.17-1.1,0.43
			c-0.31,0.22-0.68,0.57-1.12,1.07c-0.09,0.1-0.17,0.21-0.26,0.32c0-0.18-0.06-0.32-0.13-0.42c-0.1-0.15-0.25-0.29-0.57-0.5
			c-0.5-0.33-0.87-0.48-1.19-0.48c-0.06,0-0.13,0.01-0.19,0.02c-0.18,0.03-0.36,0.13-0.65,0.35c-0.42,0.32-0.83,0.67-1.22,1.06
			c-0.05-0.12-0.13-0.22-0.22-0.31c-0.05-0.05-0.14-0.11-0.41-0.29c-0.53-0.33-0.79-0.43-1-0.45c-0.09-0.04-0.19-0.06-0.3-0.06
			c-0.32,0-0.57,0.19-0.75,0.35c-0.16,0.14-0.31,0.31-0.45,0.54c-0.17,0.27-0.24,0.45-0.26,0.62l0,0.04v0.04
			c0,0.34,0.07,0.57,0.17,0.72c0.01,0.03,0.03,0.06,0.04,0.09c0.02,0.05,0.05,0.09,0.08,0.13c-0.06,0.16-0.13,0.35-0.2,0.55
			c0.05-0.2,0.05-0.26,0.03-0.34c-0.04-0.31-0.23-0.55-0.5-0.66c-0.02-0.02-0.04-0.04-0.06-0.05c-0.05-0.04-0.1-0.07-0.17-0.1
			c-0.06-0.03-0.12-0.05-0.18-0.07L20.5,33.1l-0.07,0.09c-0.03-0.01-0.06-0.02-0.1-0.03c-0.07-0.02-0.14-0.02-0.21-0.02
			c-0.01,0-0.01,0-0.02,0c-0.07-0.02-0.15-0.04-0.23-0.04l-0.07,0l-0.05,0.01c-0.29,0.04-0.53,0.22-0.63,0.48
			c-0.03,0.06-0.14,0.23-0.46,0.7c-0.31,0.45-0.56,0.82-0.75,1.08c-0.46,0.59-0.99,1.31-1.58,2.15c0-0.01,0.01-0.02,0.01-0.02
			c0.04-0.08,0.17-0.35,0.59-1.18c0.17-0.34,0.31-0.61,0.41-0.8c0.16-0.06,0.35-0.21,0.49-0.51c0.05-0.12,0.1-0.27,0.16-0.51
			c0.04-0.18,0.16-0.64-0.16-0.98c-0.11-0.11-0.24-0.19-0.39-0.24c-0.08-0.05-0.16-0.09-0.24-0.11c-0.2-0.17-0.45-0.23-0.58-0.26
			c-0.18-0.04-0.32-0.06-0.45-0.06c-0.17,0-0.31,0.04-0.44,0.11c-0.18,0.1-0.3,0.26-0.4,0.41c-0.08,0.12-0.12,0.17-0.14,0.19
			c-0.05,0.06-0.15,0.17-0.2,0.33c-0.04,0.06-0.1,0.18-0.23,0.42c-0.09,0.19-0.16,0.31-0.2,0.42l-0.11,0.12
			c-0.05,0.06-0.13,0.17-0.15,0.34c-0.01,0.01-0.08,0.13-0.08,0.15c-0.1,0.12-0.27,0.44-1.08,2.28c-0.09,0.23-0.23,0.57-0.4,1.02
			c-0.09,0.23-0.16,0.43-0.21,0.6c-0.06,0.09-0.09,0.18-0.11,0.29c-0.29-0.67-0.58-1.17-0.87-1.53c-0.26-0.33-0.58-0.61-0.95-0.84
			c0.49-0.31,0.95-0.65,1.37-1c0.63-0.53,1.09-1.03,1.39-1.52c0.42-0.69,0.64-1.35,0.65-2.01c-0.02-0.54-0.2-1.15-0.54-1.86
			c-0.4-0.79-0.81-1.36-1.25-1.75c-0.39-0.33-0.79-0.57-1.18-0.7c-0.38-0.13-0.86-0.19-1.47-0.21c-0.05,0-0.11-0.01-0.18-0.01
			c-0.23,0-0.55,0.02-0.95,0.08c-0.68,0.08-0.88,0.13-0.98,0.15l-0.04,0.01l-0.04,0.02c-0.05,0.02-0.14,0.05-0.28,0.09
			c-0.13,0.03-0.39,0.12-1.12,0.4c-0.71,0.28-0.94,0.39-1.05,0.45c-0.09,0.04-0.26,0.12-0.48,0.23c-0.31,0.13-0.68,0.33-1.12,0.61
			c-0.45,0.28-0.76,0.51-0.95,0.7c-1.06,1-1.02,1.89-0.79,2.48c0.04,0.14,0.09,0.28,0.17,0.4c0.01,0.02,0.02,0.05,0.03,0.07
			c0.03,0.12,0.07,0.24,0.13,0.35l0.01,0.04l0.01,0.04c0.06,0.2,0.13,0.41,0.33,0.56c0.13,0.1,0.29,0.14,0.47,0.14
			c0.05,0,0.11,0,0.18-0.01l0.04-0.01c0.31-0.06,0.75-0.25,1.05-0.82c0.04-0.08,0.15-0.23,0.4-0.42c0,0.01-0.01,0.02-0.01,0.04
			l-0.01,0l-0.13,0.37c-0.01,0.02-0.01,0.04-0.02,0.06c-0.08,0.14-0.17,0.34-0.28,0.62l-0.01,0.03l-0.01,0.03
			c-0.01,0.02-0.04,0.14-0.26,0.63c-0.41,0.94-0.76,1.78-1.04,2.53c-0.03,0.08-0.06,0.17-0.1,0.27c-0.05,0.12-0.1,0.24-0.14,0.36
			c-0.04,0.11-0.07,0.18-0.08,0.22c-0.19,0.46-0.4,1.06-0.64,1.81c-0.2,0.65-0.35,1.13-0.44,1.48c-0.1-0.05-0.21-0.07-0.32-0.07
			c-0.17,0-0.42,0.06-0.67,0.34c-0.26,0.31-0.37,0.76-0.32,1.4c0.03,0.37,0.15,0.77,0.35,1.21c0.3,0.68,0.59,1.15,0.89,1.44
			c0.05,0.06,0.11,0.11,0.17,0.16c0.04,0.04,0.09,0.08,0.13,0.11c0.06,0.04,0.18,0.13,0.38,0.25c0.11,0.07,0.21,0.12,0.29,0.17
			c0.09,0.09,0.22,0.17,0.4,0.23c0.12,0.03,0.24,0.05,0.35,0.05c0.06,0,0.12,0,0.18-0.01l0.02,0c0.03,0,0.1,0.02,0.23,0.06
			c0.62,0.19,1.23,0.29,1.83,0.29c0.07,0,0.14,0,0.22,0c0.56-0.03,1.2-0.16,1.98-0.4c0.91-0.3,1.79-0.77,2.63-1.4
			c0.85-0.63,1.51-1.34,1.97-2.11c0.24-0.38,0.42-0.77,0.56-1.14c0.26,0.33,0.65,0.61,1.21,0.86c0.3,0.13,0.53,0.19,0.73,0.19
			c0.09,0,0.17-0.01,0.22-0.03c0.48-0.11,0.97-0.49,1.53-1.19c0.23-0.27,0.49-0.61,0.78-1.01c0.05,0.12,0.11,0.23,0.19,0.31
			c0.13,0.17,0.36,0.34,0.76,0.57c0.44,0.25,0.67,0.34,0.89,0.34l0.06,0l0.05-0.01c0.17-0.02,0.32-0.1,0.47-0.24
			c0.09-0.08,0.15-0.16,0.19-0.24l0.19-0.16l-0.04-0.26c0.01-0.11,0.01-0.24-0.03-0.38c0-0.06,0.01-0.31,0.2-1.08
			c0.09-0.38,0.26-0.95,0.52-1.7c-0.05,0.2-0.11,0.4-0.15,0.62l-0.06,0.23c-0.02,0.08-0.04,0.16-0.06,0.22
			c-0.02,0.08-0.03,0.16-0.04,0.22c0,0.03-0.01,0.05-0.01,0.07c-0.01,0.03-0.02,0.07-0.02,0.11c-0.04,0.14-0.07,0.26-0.07,0.36
			c0,0.03-0.01,0.07-0.02,0.11c-0.05,0.23-0.06,0.59,0.19,1c0,0,0,0.01,0,0.01l-0.26,0.04c0,0,0.42,0.53,0.43,0.54
			c0.05,0.13,0.14,0.23,0.23,0.29l0.06,0.07c0.15,0.19,0.35,0.33,0.6,0.41c0.14,0.13,0.32,0.21,0.51,0.21
			c0.41,0,0.66-0.32,0.75-0.43l0.03-0.04c0.11-0.17,0.17-0.31,0.19-0.44c0,0,0.02-0.04,0.02-0.04c0.03-0.06,0.09-0.22,0.33-0.86
			c0.42-1.13,0.9-2.18,1.45-3.15c0.18,0.26,0.45,0.51,0.81,0.76c0.37,0.25,0.57,0.36,0.81,0.36l0.05,0l0.15-0.02l0.09-0.04
			c0.08-0.04,0.14-0.07,0.19-0.1c0.03-0.02,0.05-0.04,0.08-0.06c0.03,0.26,0.08,0.49,0.16,0.7c0.13,0.32,0.32,0.62,0.57,0.87
			c0.12,0.12,0.32,0.28,0.64,0.51c0.39,0.28,0.57,0.37,0.72,0.42c0.13,0.05,0.26,0.07,0.41,0.07c0.27,0,0.54-0.08,0.82-0.23
			c0.32-0.16,0.61-0.36,0.86-0.61c0.22-0.22,0.53-0.57,0.94-1.08c0.02-0.02,0.04-0.04,0.05-0.07c-0.07,0.59-0.15,1.05-0.24,1.37
			c-0.28,1-0.63,1.77-1.06,2.29c-0.31,0.38-0.6,0.66-0.88,0.84c-0.29,0.19-0.72,0.37-1.29,0.54c-0.27,0.09-0.43,0.12-0.53,0.13
			c-0.02-0.03-0.04-0.07-0.06-0.09l-0.07-0.46h-0.24c-0.02-0.02-0.04-0.04-0.06-0.06c-0.04-0.05-0.09-0.09-0.13-0.12
			c-0.06-0.05-0.12-0.09-0.18-0.12l-0.39-0.56l-0.12,0.15l-0.23-0.45l-0.38,0.48c-0.14,0.03-0.27,0.1-0.36,0.21
			c-0.22,0.24-0.24,0.56-0.21,1c0.03,0.43,0.14,0.85,0.33,1.23l0.02,0.03c0.05,0.09,0.16,0.27,0.55,0.8
			c0.32,0.43,0.56,0.71,0.76,0.88l0.02,0.02l0.02,0.01c0.5,0.35,1.06,0.53,1.66,0.54l0.02,0l0.02,0c0.22-0.01,0.49-0.06,0.81-0.14
			c0.31-0.08,0.63-0.18,0.95-0.3c0.33-0.13,0.61-0.26,0.86-0.4c0.8-0.47,1.46-1.08,1.96-1.79c0.5-0.7,0.88-1.58,1.15-2.62
			c0.24-0.98,0.26-1.35,0.24-1.56c0-0.07,0.01-0.24,0.03-0.48c0.07-0.79,0.08-1.17,0.06-1.38c0.04-0.17,0.05-0.34,0.05-0.48
			c0.01-0.39,0.05-0.77,0.09-1.14c0.07,0.21,0.17,0.4,0.28,0.58c0.24,0.34,0.6,0.67,1.09,0.98c0.38,0.25,0.68,0.41,0.91,0.5
			c0.25,0.1,0.55,0.15,0.9,0.16l0.06,0c0.32,0,0.64-0.04,0.95-0.12c0.61-0.18,1.22-0.55,1.87-1.12c0.09,0.11,0.17,0.22,0.17,0.22
			c0.05,0.12,0.12,0.21,0.23,0.29l0.06,0.07c0.15,0.19,0.35,0.33,0.6,0.41c0.14,0.13,0.32,0.21,0.51,0.21
			c0.41,0,0.66-0.32,0.75-0.43l0.03-0.04c0.11-0.17,0.17-0.31,0.19-0.44c0-0.01,0.01-0.02,0.02-0.03c0.03-0.06,0.09-0.22,0.33-0.86
			c0.42-1.13,0.9-2.18,1.45-3.15c0.18,0.26,0.45,0.51,0.81,0.76c0.37,0.25,0.57,0.36,0.81,0.36l0.05,0l0.15-0.02l0.09-0.04
			c0.08-0.04,0.14-0.07,0.19-0.11c0.09-0.06,0.16-0.13,0.22-0.21c0.02-0.03,0.04-0.05,0.06-0.08c0.08-0.08,0.14-0.18,0.18-0.29
			c0.04-0.11,0.1-0.37-0.07-0.66c0.01-0.07,0.03-0.24,0.12-0.54c0.26-0.94,0.72-2.03,1.37-3.26c0.37-0.69,0.46-0.88,0.48-0.95
			C50.08,29.82,49.99,29.52,49.87,29.34z M9.99,40.2c-0.08,0.19-0.18,0.4-0.32,0.62c-0.14,0.23-0.3,0.45-0.48,0.67
			c-0.47,0.59-0.91,1.02-1.29,1.26c-0.77,0.48-1.53,0.82-2.23,1.02c-0.49,0.12-0.91,0.19-1.25,0.2c0.08-0.27,0.2-0.67,0.39-1.26
			c0.37-1.15,0.67-2.06,0.91-2.7c0.04-0.1,0.07-0.16,0.09-0.21c0.11-0.03,0.31-0.07,0.65-0.11c0.44-0.06,0.8-0.09,1.05-0.09l0.04,0
			c1.45,0,2.16,0.22,2.49,0.42C10.04,40.06,10.02,40.13,9.99,40.2z M9.9,33.35c-0.6,0.52-1.34,1.03-2.2,1.51
			c0.39-1.04,0.69-1.84,0.9-2.41l0.23-0.65l0.09-0.02c0.34-0.08,0.71-0.12,1.1-0.12c0.21,0,0.44,0.01,0.65,0.04
			c0.23,0.03,0.4,0.07,0.52,0.12C11.05,32.15,10.72,32.65,9.9,33.35z M32.07,34.37c-0.29,0.42-0.39,0.58-0.43,0.67l-0.18,0.29
			c-0.08,0.13-0.23,0.37-0.24,0.38c-0.05,0.05-0.08,0.09-0.11,0.13l-0.47,0.61c-0.23,0.3-0.45,0.6-0.68,0.9
			c0.03-0.07,0.06-0.14,0.09-0.22c0.4-1,0.87-1.86,1.38-2.56c0.25-0.33,0.45-0.57,0.61-0.74c0.04,0.15,0.08,0.28,0.13,0.39
			L32.07,34.37z M38.34,37.37c-0.13,0.08-0.25,0.15-0.38,0.21c0.01-0.2,0.04-0.42,0.1-0.68c0.06-0.28,0.15-0.55,0.25-0.81
			c0.27,0.2,0.47,0.31,0.66,0.38c0.12,0.03,0.24,0.05,0.36,0.05c0.03,0,0.06,0,0.09,0C38.97,36.9,38.61,37.19,38.34,37.37z"/>
		
			<linearGradient id="SVGID_00000096767442619104250050000004569087497253584060_" gradientUnits="userSpaceOnUse" x1="40.4586" y1="37.6225" x2="48.8596" y2="29.2214">
			<stop  offset="0.3744" style="stop-color:#1B1219"/>
			<stop  offset="0.601" style="stop-color:#3A150E"/>
			<stop  offset="0.8547" style="stop-color:#571805"/>
			<stop  offset="1" style="stop-color:#621901"/>
		</linearGradient>
		<path style="fill:url(#SVGID_00000096767442619104250050000004569087497253584060_);" d="M48.93,29.38
			c0.22,0.15,0.35,0.25,0.39,0.31c0.04,0.06,0.03,0.16-0.03,0.28c-0.05,0.11-0.2,0.42-0.47,0.91c-0.68,1.27-1.15,2.4-1.43,3.39
			c-0.16,0.53-0.19,0.86-0.09,0.99c0.06,0.07,0.07,0.12,0.06,0.17c-0.02,0.05-0.05,0.07-0.11,0.08c-0.03,0-0.04,0.02-0.02,0.05
			c0.02,0.01,0.02,0.03,0,0.06c-0.02,0.03-0.04,0.05-0.07,0.07c-0.03,0.02-0.06,0.04-0.11,0.06c-0.04,0.01-0.19-0.08-0.45-0.25
			c-0.4-0.27-0.66-0.54-0.75-0.8c-0.1-0.26-0.08-0.65,0.04-1.15l0.06-0.37l-0.28,0.44c-0.91,1.35-1.68,2.88-2.32,4.58
			c-0.18,0.47-0.29,0.75-0.32,0.83c-0.05,0.1-0.07,0.16-0.07,0.19c0.02,0.01-0.01,0.08-0.09,0.19c-0.16,0.2-0.27,0.23-0.33,0.09
			c-0.02-0.06-0.03-0.11-0.02-0.17l0.03-0.09l-0.06,0.1c-0.05,0.07-0.1,0.1-0.15,0.09c-0.13-0.04-0.23-0.11-0.3-0.2
			c0.01,0,0.01-0.02-0.02-0.05c-0.03-0.03-0.06-0.07-0.09-0.1c-0.04-0.03-0.06-0.05-0.08-0.05c-0.02-0.01-0.02-0.06,0-0.16
			c0.04-0.12,0.05-0.17,0.03-0.14c-0.02,0-0.04,0.02-0.06,0.05c-0.05,0.1-0.08,0.1-0.09,0.01c0-0.03,0-0.07,0-0.13
			c0-0.1-0.03-0.2-0.09-0.3c-0.12-0.19-0.16-0.37-0.12-0.54c0.03-0.14,0.04-0.21,0.04-0.23c-0.01-0.04,0.01-0.13,0.06-0.25
			c0-0.01,0-0.04,0.01-0.08c0.01-0.04,0.02-0.08,0.03-0.14c0.01-0.05,0.02-0.11,0.03-0.17c0.01-0.06,0.03-0.13,0.05-0.21
			c0.02-0.08,0.04-0.15,0.06-0.23c0.1-0.46,0.22-0.86,0.34-1.21c0.3-0.92,0.5-1.49,0.61-1.71c0.02-0.06,0.05-0.16,0.1-0.28
			c0.03-0.11,0.06-0.19,0.1-0.25c0.04-0.06,0.13-0.3,0.27-0.72c0.12-0.36,0.23-0.67,0.33-0.94c0.09-0.22,0.12-0.37,0.08-0.43
			c0-0.03-0.01-0.05-0.03-0.06c-0.02-0.01-0.03-0.01-0.04-0.01c-0.01,0.01-0.02,0-0.05-0.03c-0.03-0.03-0.05-0.06-0.07-0.1
			c-0.02-0.04-0.03-0.08-0.04-0.11c-0.02-0.06-0.04-0.08-0.06-0.08c-0.03,0-0.05-0.11-0.05-0.33c0.01-0.06,0.06-0.18,0.17-0.35
			c0.11-0.17,0.21-0.3,0.32-0.39c0.19-0.17,0.32-0.23,0.39-0.17c0.02,0.03,0.05,0.04,0.1,0.03c0.09-0.03,0.35,0.09,0.78,0.36
			c0.17,0.11,0.27,0.18,0.32,0.22c0.04,0.04,0.07,0.09,0.08,0.17c0.02,0.18-0.04,0.57-0.2,1.19l-0.17,0.58l0.25-0.33
			c0.71-0.93,1.48-1.71,2.31-2.33c0.19-0.15,0.32-0.22,0.38-0.23C48.21,28.97,48.51,29.09,48.93,29.38z"/>
	</g>
</g>
<g>
	<g>
		<path class="st23" d="M12.92,31.05c0.3,0.61,0.46,1.14,0.47,1.58c-0.01,0.51-0.19,1.05-0.55,1.64c-0.26,0.42-0.68,0.88-1.25,1.36
			c-0.57,0.48-1.21,0.92-1.9,1.31c-0.33,0.18-0.49,0.27-0.49,0.28c0,0.01,0.11,0.05,0.34,0.12c0.66,0.22,1.17,0.56,1.54,1.03
			c0.26,0.32,0.52,0.79,0.79,1.41c0.48,1.15,0.33,2.38-0.47,3.68c-0.42,0.7-1.02,1.34-1.81,1.93c-0.78,0.59-1.6,1.02-2.44,1.3
			c-0.7,0.22-1.31,0.34-1.81,0.36c-0.59,0.02-1.2-0.06-1.82-0.26c-0.26-0.08-0.44-0.11-0.54-0.08c-0.09,0.01-0.18,0.01-0.27-0.02
			c-0.09-0.03-0.13-0.06-0.14-0.1c-0.01-0.04-0.03-0.06-0.08-0.06c-0.03,0-0.13-0.05-0.31-0.16c-0.18-0.11-0.29-0.18-0.34-0.22
			c-0.02-0.01-0.03-0.03-0.05-0.05c-0.02-0.02-0.04-0.04-0.08-0.07C1.69,46.02,1.67,46,1.65,45.97c-0.24-0.22-0.5-0.64-0.77-1.25
			C0.7,44.34,0.6,44,0.58,43.71c-0.03-0.44,0.03-0.75,0.17-0.92c0.11-0.12,0.19-0.14,0.27-0.06c0.02,0.06,0.02,0.11,0,0.16
			c-0.02,0.05-0.02,0.08,0,0.09c0.02,0.01,0.06,0,0.1-0.04c0.05-0.05,0.11-0.04,0.16,0.02c0.01,0.04,0,0.07-0.01,0.07l0.03,0.02
			c0.05,0.04,0.09,0.1,0.13,0.19c0.04,0.09,0.07,0.14,0.1,0.13c0.07-0.01,0.18-0.33,0.32-0.96c0.08-0.32,0.23-0.85,0.46-1.59
			c0.23-0.74,0.44-1.33,0.62-1.77c0.01-0.03,0.04-0.11,0.08-0.22c0.04-0.12,0.09-0.23,0.14-0.34c0.05-0.11,0.08-0.21,0.12-0.31
			c0.28-0.72,0.62-1.55,1.03-2.49c0.16-0.36,0.26-0.6,0.29-0.71c0.16-0.39,0.26-0.6,0.3-0.62c0.03-0.02,0.03-0.04,0.01-0.06
			c-0.02-0.02-0.01-0.03,0.02-0.04c0.03,0,0.04-0.02,0.02-0.05c-0.02-0.03,0-0.06,0.05-0.08c0.05-0.03,0.06-0.06,0.03-0.08
			c-0.03-0.03-0.02-0.04,0.02-0.05c0.04-0.01,0.04-0.02,0.02-0.05c-0.03-0.03-0.02-0.06,0.02-0.1c0.04-0.04,0.08-0.13,0.12-0.27
			c0.18-0.49,0.32-0.86,0.44-1.11c0.07-0.16,0.1-0.24,0.08-0.26c-0.02-0.01-0.17,0.05-0.47,0.2c-0.29,0.15-0.54,0.28-0.76,0.42
			c-0.52,0.3-0.87,0.61-1.04,0.93c-0.15,0.27-0.34,0.44-0.6,0.49c-0.09,0.01-0.15,0.01-0.17-0.01c-0.03-0.02-0.05-0.09-0.09-0.2
			c-0.02-0.12-0.04-0.19-0.06-0.21c-0.03-0.03-0.06-0.1-0.09-0.21c-0.05-0.17-0.09-0.26-0.11-0.26c-0.02,0-0.05-0.09-0.11-0.26
			c-0.23-0.58-0.03-1.17,0.62-1.78c0.16-0.16,0.45-0.36,0.85-0.62c0.41-0.26,0.75-0.44,1.02-0.56C5,30,5.18,29.91,5.26,29.87
			c0.1-0.06,0.43-0.2,0.98-0.42c0.56-0.22,0.91-0.35,1.06-0.38c0.18-0.05,0.29-0.09,0.35-0.12c0.12-0.03,0.42-0.08,0.9-0.14
			c0.48-0.06,0.82-0.08,1.02-0.07c0.55,0.01,0.98,0.07,1.3,0.18c0.31,0.11,0.63,0.3,0.96,0.58C12.2,29.83,12.56,30.34,12.92,31.05z
			 M10.56,39.57c-0.55-0.41-1.55-0.62-3-0.63c-0.29,0-0.69,0.03-1.19,0.1c-0.5,0.07-0.83,0.14-0.97,0.2
			c-0.07,0.04-0.17,0.22-0.29,0.53c-0.24,0.66-0.55,1.57-0.92,2.74c-0.37,1.17-0.56,1.83-0.57,1.98c-0.01,0.05,0,0.08,0.01,0.1
			c0.02,0.02,0.05,0.03,0.08,0.03c0.04,0,0.11,0,0.22,0c0.2,0,0.36,0,0.48,0c0.4-0.01,0.87-0.08,1.41-0.22
			c0.78-0.21,1.58-0.58,2.41-1.1c0.45-0.29,0.93-0.76,1.45-1.41c0.2-0.24,0.37-0.48,0.53-0.73c0.16-0.25,0.28-0.49,0.37-0.72
			c0.09-0.23,0.14-0.42,0.15-0.57C10.74,39.77,10.68,39.67,10.56,39.57z M4.17,30.76c1.08-0.6,2.14-1.05,3.18-1.36l0.28-0.13
			c-0.53,0.06-1.37,0.37-2.53,0.93c-1.06,0.51-1.77,0.94-2.13,1.3l0.32-0.18C3.55,31.14,3.85,30.95,4.17,30.76z M7.06,44.34
			c0.23-0.09,0.5-0.23,0.79-0.4s0.56-0.35,0.78-0.51c0.22-0.16,0.35-0.28,0.39-0.34L8.83,43.2c-0.32,0.24-0.73,0.49-1.22,0.76
			c-0.5,0.27-0.94,0.47-1.31,0.6c-0.26,0.08-0.41,0.13-0.44,0.15l0.36-0.05C6.52,44.56,6.8,44.45,7.06,44.34z M4.84,35.04
			c-0.03,0.02-0.04,0.04-0.04,0.07c0.01,0.09,0.03,0.08,0.06-0.03L4.84,35.04z M4.96,34.78c-0.02,0-0.03,0.03-0.06,0.1
			c-0.02,0.06-0.03,0.09-0.01,0.09c0.01,0,0.03-0.03,0.06-0.1C4.97,34.8,4.98,34.77,4.96,34.78z M5.12,34.42
			c-0.02,0-0.04,0.04-0.07,0.1c-0.03,0.06-0.04,0.09-0.02,0.09c0.01,0,0.04-0.03,0.07-0.1C5.13,34.45,5.13,34.42,5.12,34.42z
			 M7.38,45.95l0.06-0.03c-0.02-0.01-0.05-0.01-0.09,0.01L7.38,45.95z M7.7,45.81l0.04-0.03c-0.02-0.01-0.05-0.01-0.09,0.01
			L7.7,45.81z M10.61,33.99l-0.3,0.18c-0.59,0.48-1.15,0.88-1.67,1.19c-0.69,0.41-1.39,0.76-2.1,1.05
			c-0.12,0.05-0.17,0.08-0.17,0.11c0,0.03,0.02,0.03,0.05,0.02c0.14-0.06,0.42-0.19,0.84-0.39c0.86-0.42,1.56-0.81,2.1-1.19
			C9.97,34.55,10.38,34.23,10.61,33.99z M11.89,31.69c0.03-0.12-0.01-0.22-0.11-0.3c-0.24-0.17-0.58-0.29-1.03-0.35
			c-0.71-0.08-1.37-0.05-1.98,0.1l-0.44,0.11l-0.34,0.98c-0.28,0.75-0.72,1.93-1.32,3.53l-0.17,0.43l0.13-0.04
			c0.1-0.04,0.46-0.23,1.09-0.55c1.04-0.55,1.91-1.13,2.62-1.75C11.28,33.03,11.79,32.31,11.89,31.69z M7.88,29.22l0,0.02l0.07-0.01
			l0.09-0.03C7.97,29.19,7.92,29.19,7.88,29.22z M9.1,36.65c-0.03,0-0.07,0.02-0.11,0.06c-0.04,0.04-0.05,0.05-0.02,0.05
			c0.03,0,0.07-0.02,0.11-0.06C9.12,36.66,9.13,36.65,9.1,36.65z M9.31,36.58c0.05-0.04,0.05-0.05,0.02-0.05
			c-0.04,0.01-0.08,0.03-0.12,0.06l-0.02,0.05C9.22,36.63,9.26,36.61,9.31,36.58z M9.53,36.46c0.04-0.04,0.05-0.05,0.02-0.05
			c-0.03,0-0.07,0.02-0.11,0.06l-0.02,0.05C9.46,36.51,9.49,36.49,9.53,36.46z"/>
		<path class="st23" d="M21.03,34.24c0.11,0.01,0.17,0.07,0.18,0.17c0.01,0.06-0.24,0.77-0.73,2.13c-0.64,1.74-1.05,2.96-1.21,3.65
			c-0.19,0.74-0.25,1.2-0.2,1.39c0.03,0.09,0.03,0.14,0,0.18l0.01,0.04c-0.04,0.04-0.06,0.06-0.06,0.08c0,0.03-0.02,0.07-0.06,0.11
			c-0.05,0.04-0.09,0.07-0.12,0.07c-0.08,0.01-0.27-0.07-0.57-0.25c-0.31-0.18-0.5-0.32-0.57-0.41c-0.09-0.11-0.14-0.26-0.15-0.45
			c-0.03-0.29,0.02-0.71,0.15-1.25c0.04-0.18,0.05-0.27,0.03-0.27c0-0.01-0.02,0-0.05,0.04c-0.03,0.04-0.08,0.1-0.14,0.18
			c-0.06,0.07-0.12,0.15-0.18,0.24c-0.68,0.96-1.22,1.69-1.64,2.19c-0.46,0.57-0.85,0.89-1.17,0.97c-0.1,0.03-0.28-0.01-0.54-0.12
			c-0.47-0.22-0.8-0.45-0.99-0.71c-0.11-0.16-0.19-0.37-0.22-0.62c-0.03-0.25-0.03-0.47,0.02-0.67l0.07-0.34
			c0.07-0.4,0.14-0.67,0.23-0.83c0.02-0.05,0.03-0.09,0.03-0.13c-0.01-0.04,0.01-0.06,0.04-0.06l0.02-0.03
			c-0.02-0.01,0.06-0.24,0.22-0.69c0.17-0.45,0.3-0.78,0.39-1c0.59-1.35,0.92-2.05,0.99-2.12c0.01-0.02,0.05-0.08,0.11-0.18
			c0.06-0.11,0.09-0.17,0.09-0.18l0.02-0.05l0-0.02c0-0.03,0-0.04,0.02-0.03c0.04-0.04,0.07-0.07,0.09-0.09
			c0.02-0.03,0.04-0.05,0.06-0.09c0.02-0.03,0.03-0.06,0.05-0.08c0.01-0.02,0.02-0.04,0.01-0.06c0-0.01,0.05-0.13,0.17-0.36
			c0.11-0.22,0.18-0.35,0.21-0.39c0.04-0.05,0.06-0.09,0.05-0.11c0-0.02,0.02-0.06,0.07-0.12c0.05-0.06,0.12-0.15,0.19-0.26
			c0.08-0.11,0.13-0.18,0.18-0.2c0.06-0.04,0.19-0.03,0.4,0.02c0.21,0.05,0.32,0.11,0.33,0.17c0,0.01,0.05,0.03,0.13,0.06
			c0.09,0.03,0.14,0.05,0.16,0.08c0.02,0.03,0.06,0.04,0.11,0.05c0.05,0.01,0.1,0.03,0.15,0.08c0.04,0.05,0.04,0.17-0.01,0.36
			c-0.05,0.19-0.09,0.33-0.13,0.41c-0.08,0.18-0.16,0.22-0.24,0.12c-0.02-0.01-0.04-0.01-0.07,0.01c-0.05,0.1-0.24,0.48-0.58,1.15
			c-0.34,0.67-0.54,1.07-0.6,1.2c-0.06,0.13-0.16,0.37-0.31,0.71c-0.33,0.78-0.62,1.54-0.87,2.31c-0.21,0.68-0.3,1.04-0.26,1.06
			c0.02,0.01,0.4-0.47,1.15-1.45c0.47-0.6,0.94-1.25,1.42-1.96c0.59-0.83,1.11-1.53,1.56-2.11c0.2-0.28,0.46-0.65,0.77-1.11
			c0.31-0.46,0.48-0.73,0.52-0.81c0.01-0.05,0.05-0.07,0.11-0.08s0.1,0.02,0.09,0.08l-0.01,0.11l0.06-0.1
			c0.05-0.05,0.12-0.07,0.2-0.05c0.08,0.02,0.17,0.06,0.27,0.13c0.1,0.07,0.16,0.09,0.17,0.08l0.03,0.02c0,0.03,0.03,0.04,0.07,0.03
			c0.03,0,0.06,0,0.09,0.02c0.03,0.02,0.06,0.04,0.09,0.05s0.03,0.04,0.02,0.05L21.03,34.24z"/>
		<path class="st23" d="M28.02,32.3c0.22,0.15,0.35,0.25,0.39,0.31c0.04,0.06,0.03,0.16-0.03,0.28c-0.05,0.11-0.2,0.42-0.47,0.91
			c-0.68,1.27-1.15,2.4-1.43,3.39c-0.16,0.53-0.19,0.86-0.09,0.99c0.06,0.07,0.07,0.12,0.06,0.17c-0.02,0.05-0.05,0.07-0.11,0.08
			c-0.03,0-0.04,0.02-0.02,0.05c0.02,0.01,0.02,0.03,0,0.06c-0.02,0.03-0.04,0.05-0.07,0.07c-0.03,0.02-0.06,0.04-0.11,0.06
			c-0.04,0.01-0.19-0.08-0.45-0.25c-0.4-0.27-0.66-0.54-0.75-0.8c-0.1-0.26-0.08-0.65,0.04-1.15l0.06-0.37l-0.28,0.44
			c-0.91,1.35-1.68,2.88-2.32,4.58c-0.18,0.47-0.29,0.75-0.32,0.83c-0.05,0.1-0.07,0.16-0.07,0.19c0.02,0.01-0.01,0.08-0.09,0.19
			c-0.16,0.2-0.27,0.23-0.33,0.09c-0.02-0.06-0.03-0.11-0.02-0.17l0.03-0.09l-0.06,0.1c-0.05,0.07-0.1,0.1-0.15,0.09
			c-0.13-0.04-0.23-0.11-0.3-0.2c0.01,0,0.01-0.02-0.02-0.05c-0.03-0.03-0.06-0.07-0.09-0.1c-0.04-0.03-0.06-0.05-0.08-0.05
			c-0.02-0.01-0.02-0.06,0-0.16c0.04-0.12,0.05-0.17,0.03-0.14c-0.02,0-0.04,0.02-0.06,0.05c-0.05,0.1-0.08,0.1-0.09,0.01
			c0-0.03,0-0.07,0-0.13c0-0.1-0.03-0.2-0.09-0.3c-0.12-0.19-0.16-0.37-0.12-0.54c0.03-0.14,0.04-0.21,0.04-0.23
			c-0.01-0.04,0.01-0.13,0.06-0.25c0-0.01,0-0.04,0.01-0.08c0.01-0.04,0.02-0.08,0.03-0.14c0.01-0.05,0.02-0.11,0.03-0.17
			c0.01-0.06,0.03-0.13,0.05-0.21c0.02-0.08,0.04-0.15,0.06-0.23c0.1-0.46,0.22-0.86,0.34-1.21c0.3-0.92,0.5-1.49,0.61-1.71
			c0.02-0.06,0.05-0.16,0.1-0.28c0.03-0.11,0.06-0.19,0.1-0.25c0.04-0.06,0.13-0.3,0.27-0.72c0.12-0.36,0.23-0.67,0.33-0.94
			c0.09-0.22,0.12-0.37,0.08-0.43c0-0.03-0.01-0.05-0.03-0.06c-0.02-0.01-0.03-0.01-0.04-0.01c-0.01,0.01-0.02,0-0.05-0.03
			c-0.03-0.03-0.05-0.06-0.07-0.1c-0.02-0.04-0.03-0.08-0.04-0.11c-0.02-0.06-0.04-0.08-0.06-0.08c-0.03,0-0.05-0.11-0.05-0.33
			c0.01-0.06,0.06-0.18,0.17-0.35c0.11-0.17,0.21-0.3,0.32-0.39c0.19-0.17,0.32-0.23,0.39-0.17c0.02,0.03,0.05,0.04,0.1,0.03
			c0.09-0.03,0.35,0.09,0.78,0.36c0.17,0.11,0.27,0.18,0.32,0.22c0.04,0.04,0.07,0.09,0.08,0.17c0.02,0.18-0.04,0.57-0.2,1.19
			l-0.17,0.58l0.25-0.33c0.71-0.93,1.48-1.71,2.31-2.33c0.19-0.15,0.32-0.22,0.38-0.23C27.3,31.9,27.6,32.02,28.02,32.3z"/>
		<path class="st23" d="M37.08,31.97c0.09-0.03,0.14-0.04,0.17-0.03c0.02,0,0.04,0.04,0.05,0.09c0,0.01,0,0.06,0,0.13
			c0,0.03-0.08,0.11-0.24,0.26c-0.41,0.35-0.8,0.78-1.17,1.28c-0.4,0.53-0.7,1.09-0.91,1.67c-0.4,1.16-0.63,2.42-0.68,3.8
			c-0.02,0.31-0.04,0.47-0.07,0.46l0.01,0.04c0.04,0.1,0.03,0.54-0.04,1.32c-0.03,0.36-0.04,0.56-0.03,0.58
			c0.03,0.19-0.05,0.65-0.22,1.37c-0.25,0.96-0.6,1.76-1.05,2.4c-0.45,0.64-1.04,1.18-1.76,1.61c-0.21,0.12-0.47,0.24-0.76,0.35
			c-0.3,0.12-0.59,0.21-0.87,0.28c-0.28,0.07-0.51,0.11-0.69,0.12c-0.47-0.01-0.91-0.15-1.3-0.42c-0.16-0.13-0.37-0.38-0.64-0.76
			c-0.27-0.38-0.44-0.62-0.5-0.73c-0.15-0.31-0.24-0.64-0.26-0.99c-0.03-0.35,0-0.53,0.08-0.52c0.02,0.01,0.04,0.03,0.05,0.06
			c0.02,0.04,0.04,0.05,0.05,0.04l0.03,0.06c0.01,0.06,0.04,0.1,0.09,0.12c0.05,0.02,0.07,0.01,0.06-0.03
			c-0.01-0.07,0.03-0.09,0.11-0.06l0.08,0.06c0.04,0.04,0.06,0.05,0.07,0.03l0.03,0.04l0.05,0.02c0.01-0.03,0.04-0.02,0.09,0.02
			c0.05,0.04,0.08,0.08,0.08,0.1c0,0.02,0.02,0.03,0.04,0.03c0.02,0,0.05,0.04,0.07,0.12l0.08,0.1c0.01-0.02,0.02-0.01,0.03,0.02
			c0.03,0.11,0.06,0.17,0.09,0.17c0.03,0.01,0.05,0.06,0.07,0.15c0.01,0.09,0.03,0.13,0.06,0.12c0.03,0,0.07,0,0.12,0.03
			c0.15,0.11,0.52,0.08,1.09-0.11c0.62-0.19,1.09-0.4,1.44-0.61c0.34-0.22,0.69-0.55,1.04-0.98c0.48-0.59,0.88-1.43,1.18-2.53
			c0.17-0.62,0.31-1.63,0.4-3.04c0.03-0.24,0.05-0.48,0.08-0.73c-0.33,0.48-0.81,1.1-1.43,1.87c-0.39,0.49-0.69,0.83-0.89,1.03
			c-0.2,0.2-0.43,0.36-0.69,0.49c-0.3,0.16-0.54,0.2-0.74,0.13c-0.08-0.02-0.26-0.13-0.54-0.33c-0.28-0.2-0.46-0.34-0.55-0.44
			c-0.2-0.2-0.34-0.41-0.44-0.65c-0.12-0.3-0.16-0.67-0.12-1.11c0.04-0.44,0.16-0.99,0.38-1.65c0.14-0.41,0.22-0.64,0.25-0.7
			c0.11-0.28,0.25-0.59,0.42-0.91c0.16-0.29,0.28-0.52,0.36-0.7c0.31-0.65,0.67-1.22,1.09-1.69c0.41-0.46,0.75-0.78,1.01-0.97
			c0.26-0.19,0.52-0.29,0.78-0.31c0.44-0.03,0.94,0.17,1.51,0.61c0.21,0.16,0.34,0.31,0.42,0.43c0.07,0.12,0.13,0.32,0.16,0.6
			c0.02,0.16,0.05,0.28,0.07,0.35c0.11-0.28,0.32-0.6,0.62-0.96c0.28-0.37,0.61-0.7,0.96-0.99c0.36-0.3,0.65-0.47,0.87-0.51
			c0.12-0.03,0.22-0.02,0.29,0.04c0.08,0.06,0.12,0.08,0.14,0.08c0.06-0.01,0.18,0.12,0.35,0.4c0.08,0.14,0.13,0.21,0.14,0.2
			c0.09-0.01,0.08,0.03-0.03,0.12c-0.02,0-0.03,0.01-0.04,0.03l-0.13,0.08C36.99,32.02,37.02,32.01,37.08,31.97z M27.99,36.68
			c0.17-0.45,0.31-0.81,0.42-1.06c0.36-0.78,0.7-1.39,0.99-1.83c0.3-0.44,0.69-0.92,1.19-1.44c0.19-0.2,0.28-0.32,0.27-0.35l-0.02,0
			c0,0.03-0.01,0.05-0.03,0.05c-0.02,0-0.15,0.14-0.39,0.4c-0.24,0.26-0.43,0.48-0.57,0.65c-0.37,0.44-0.75,1.05-1.16,1.85
			c-0.41,0.79-0.7,1.48-0.86,2.05c-0.06,0.22-0.09,0.33-0.09,0.35C27.74,37.35,27.83,37.13,27.99,36.68z M31.62,36.24
			c0.05-0.07,0.08-0.1,0.08-0.09c0,0.01,0.03-0.04,0.1-0.14c0.06-0.1,0.13-0.21,0.22-0.34c0.08-0.13,0.15-0.24,0.2-0.32
			c0.03-0.08,0.17-0.28,0.4-0.61l0.34-0.52l-0.06-0.1c-0.04-0.08-0.07-0.13-0.09-0.14c-0.05-0.02-0.12-0.28-0.22-0.77l-0.09-0.46
			l-0.11,0.02c-0.38,0.13-0.87,0.6-1.48,1.41c-0.55,0.75-1.04,1.65-1.47,2.7c-0.43,1.06-0.63,1.9-0.62,2.54
			c0,0.09,0.01,0.14,0.03,0.14c0.02,0,0.08-0.03,0.16-0.1c0.22-0.18,0.37-0.33,0.46-0.47c0.05-0.08,0.27-0.34,0.65-0.78
			c0.35-0.45,0.7-0.91,1.05-1.37c0.1-0.13,0.19-0.25,0.27-0.35C31.51,36.39,31.57,36.31,31.62,36.24z M30.43,34.11
			c-0.13,0.18-0.18,0.27-0.17,0.27c0.01,0,0.09-0.09,0.21-0.28c0.05-0.08,0.11-0.17,0.17-0.27C30.63,33.84,30.56,33.93,30.43,34.11z
			"/>
		<path class="st23" d="M43.99,34.33l0.03,0.02c-0.03,0.11-0.09,0.24-0.17,0.4c-0.12,0.25-0.46,0.73-1.03,1.43
			c-0.57,0.7-1.1,1.3-1.59,1.82c-0.79,0.82-1.52,1.34-2.19,1.53c-0.25,0.06-0.52,0.1-0.81,0.09c-0.26-0.01-0.48-0.05-0.67-0.12
			c-0.19-0.07-0.45-0.22-0.78-0.44c-0.42-0.27-0.73-0.54-0.92-0.81c-0.17-0.26-0.28-0.59-0.32-0.98c-0.05-0.54,0.06-1.18,0.33-1.92
			c0.26-0.74,0.64-1.43,1.13-2.08c0.18-0.25,0.27-0.4,0.28-0.44c0.02-0.06,0.15-0.24,0.37-0.54c0.23-0.3,0.42-0.53,0.58-0.68
			c0.52-0.56,0.96-0.92,1.34-1.08c0.42-0.18,0.89-0.15,1.41,0.09c0.16,0.08,0.39,0.22,0.67,0.43c0.28,0.21,0.46,0.36,0.53,0.45
			c0.11,0.16,0.12,0.42,0.02,0.78c-0.29,1.02-0.87,1.98-1.75,2.88c-0.31,0.3-0.56,0.49-0.74,0.59c-0.18,0.1-0.36,0.13-0.54,0.08
			c-0.1-0.03-0.25-0.12-0.46-0.28c-0.21-0.16-0.37-0.29-0.48-0.41L38.1,35l-0.16,0.31c-0.23,0.46-0.4,0.94-0.51,1.44
			c-0.11,0.5-0.15,0.92-0.1,1.25c0.03,0.22,0.06,0.34,0.09,0.37c0.03,0.03,0.13,0.02,0.31-0.02c0.33-0.08,0.65-0.22,0.98-0.44
			c0.33-0.22,0.77-0.57,1.33-1.07c0.19-0.18,0.48-0.48,0.87-0.9c0.39-0.43,0.75-0.84,1.09-1.25c0.33-0.4,0.54-0.67,0.61-0.8
			c0.09-0.13,0.17-0.18,0.23-0.14c0.01,0.07-0.13,0.3-0.41,0.68c-0.27,0.37-0.8,0.98-1.6,1.83l-0.71,0.81
			c0.01-0.02,0.03-0.03,0.06-0.05c0.07-0.07,0.15-0.15,0.24-0.25c0.09-0.09,0.2-0.21,0.31-0.33c0.11-0.13,0.23-0.26,0.37-0.4
			c0.13-0.14,0.26-0.28,0.39-0.42c0.12-0.14,0.25-0.29,0.37-0.44c0.12-0.15,0.24-0.29,0.34-0.42c0.1-0.13,0.2-0.25,0.29-0.36
			c0.09-0.12,0.16-0.21,0.21-0.28c0.16-0.25,0.28-0.37,0.34-0.36c0.05,0.01,0.09,0.02,0.14,0.04c0.05,0.02,0.09,0.03,0.13,0.05
			c0.04,0.02,0.07,0.04,0.1,0.06c0.03,0.03,0.04,0.05,0.04,0.06c0,0.03,0.04,0.05,0.11,0.05c0.07,0.01,0.1,0.02,0.1,0.03
			c-0.01,0.02,0.01,0.04,0.03,0.08c0.03,0.04,0.03,0.08,0,0.11c-0.04,0.05-0.05,0.08-0.03,0.09l0.06-0.05
			c0.04-0.04,0.09-0.03,0.15,0C43.94,34.34,43.97,34.35,43.99,34.33z M36.16,35.22c0.05-0.11,0.14-0.29,0.27-0.53
			c0.33-0.69,0.78-1.39,1.33-2.13c0.41-0.56,0.84-1.04,1.29-1.43l0.28-0.26c-0.03,0-0.08,0.04-0.15,0.11
			c-0.36,0.26-0.78,0.68-1.26,1.27c-0.48,0.59-0.89,1.2-1.25,1.83c-0.12,0.21-0.26,0.46-0.4,0.76c-0.14,0.3-0.21,0.46-0.2,0.51
			L36.16,35.22z M40.18,32.19c-0.09,0.09-0.24,0.25-0.44,0.47c-0.2,0.23-0.39,0.47-0.59,0.72c-0.19,0.25-0.35,0.47-0.46,0.64
			c-0.15,0.23-0.22,0.37-0.19,0.43c0.02,0.06,0.04,0.08,0.06,0.08c0.07-0.02,0.12-0.01,0.14,0.05c0.04,0.04,0.11,0.07,0.22,0.08
			l0.2-0.21c0.63-0.62,1.06-1.16,1.29-1.61c0.1-0.19,0.19-0.41,0.29-0.66c0.09-0.25,0.13-0.38,0.12-0.4
			C40.74,31.74,40.53,31.87,40.18,32.19z M39.4,34.48c0.48-0.5,0.8-0.89,0.96-1.16c0.06-0.1,0.13-0.22,0.2-0.36s0.13-0.28,0.19-0.39
			c0.05-0.12,0.08-0.19,0.07-0.22L40.7,32.6c-0.15,0.32-0.3,0.58-0.44,0.78c-0.14,0.2-0.36,0.47-0.67,0.81
			c-0.28,0.31-0.43,0.48-0.46,0.51l0.02,0C39.2,34.67,39.28,34.6,39.4,34.48z M39.14,32.62c-0.02,0-0.04,0.03-0.08,0.09
			c-0.04,0.06-0.05,0.08-0.03,0.08c0.01,0,0.04-0.03,0.08-0.09C39.14,32.65,39.16,32.62,39.14,32.62z M39.36,32.39
			c-0.09,0.1-0.12,0.15-0.09,0.15l0.1-0.13l0.09-0.15L39.36,32.39z M40.89,34.14c0.01,0,0.06-0.05,0.13-0.15
			c0.07-0.1,0.1-0.15,0.09-0.15c-0.01,0-0.05,0.05-0.13,0.15C40.91,34.09,40.87,34.14,40.89,34.14z"/>
		<path class="st23" d="M48.93,29.38c0.22,0.15,0.35,0.25,0.39,0.31c0.04,0.06,0.03,0.16-0.03,0.28c-0.05,0.11-0.2,0.42-0.47,0.91
			c-0.68,1.27-1.15,2.4-1.43,3.39c-0.16,0.53-0.19,0.86-0.09,0.99c0.06,0.07,0.07,0.12,0.06,0.17c-0.02,0.05-0.05,0.07-0.11,0.08
			c-0.03,0-0.04,0.02-0.02,0.05c0.02,0.01,0.02,0.03,0,0.06c-0.02,0.03-0.04,0.05-0.07,0.07c-0.03,0.02-0.06,0.04-0.11,0.06
			c-0.04,0.01-0.19-0.08-0.45-0.25c-0.4-0.27-0.66-0.54-0.75-0.8c-0.1-0.26-0.08-0.65,0.04-1.15l0.06-0.37l-0.28,0.44
			c-0.91,1.35-1.68,2.88-2.32,4.58c-0.18,0.47-0.29,0.75-0.32,0.83c-0.05,0.1-0.07,0.16-0.07,0.19c0.02,0.01-0.01,0.08-0.09,0.19
			c-0.16,0.2-0.27,0.23-0.33,0.09c-0.02-0.06-0.03-0.11-0.02-0.17l0.03-0.09l-0.06,0.1c-0.05,0.07-0.1,0.1-0.15,0.09
			c-0.13-0.04-0.23-0.11-0.3-0.2c0.01,0,0.01-0.02-0.02-0.05c-0.03-0.03-0.06-0.07-0.09-0.1c-0.04-0.03-0.06-0.05-0.08-0.05
			c-0.02-0.01-0.02-0.06,0-0.16c0.04-0.12,0.05-0.17,0.03-0.14c-0.02,0-0.04,0.02-0.06,0.05c-0.05,0.1-0.08,0.1-0.09,0.01
			c0-0.03,0-0.07,0-0.13c0-0.1-0.03-0.2-0.09-0.3c-0.12-0.19-0.16-0.37-0.12-0.54c0.03-0.14,0.04-0.21,0.04-0.23
			c-0.01-0.04,0.01-0.13,0.06-0.25c0-0.01,0-0.04,0.01-0.08c0.01-0.04,0.02-0.08,0.03-0.14c0.01-0.05,0.02-0.11,0.03-0.17
			c0.01-0.06,0.03-0.13,0.05-0.21c0.02-0.08,0.04-0.15,0.06-0.23c0.1-0.46,0.22-0.86,0.34-1.21c0.3-0.92,0.5-1.49,0.61-1.71
			c0.02-0.06,0.05-0.16,0.1-0.28c0.03-0.11,0.06-0.19,0.1-0.25c0.04-0.06,0.13-0.3,0.27-0.72c0.12-0.36,0.23-0.67,0.33-0.94
			c0.09-0.22,0.12-0.37,0.08-0.43c0-0.03-0.01-0.05-0.03-0.06c-0.02-0.01-0.03-0.01-0.04-0.01c-0.01,0.01-0.02,0-0.05-0.03
			c-0.03-0.03-0.05-0.06-0.07-0.1c-0.02-0.04-0.03-0.08-0.04-0.11c-0.02-0.06-0.04-0.08-0.06-0.08c-0.03,0-0.05-0.11-0.05-0.33
			c0.01-0.06,0.06-0.18,0.17-0.35c0.11-0.17,0.21-0.3,0.32-0.39c0.19-0.17,0.32-0.23,0.39-0.17c0.02,0.03,0.05,0.04,0.1,0.03
			c0.09-0.03,0.35,0.09,0.78,0.36c0.17,0.11,0.27,0.18,0.32,0.22c0.04,0.04,0.07,0.09,0.08,0.17c0.02,0.18-0.04,0.57-0.2,1.19
			l-0.17,0.58l0.25-0.33c0.71-0.93,1.48-1.71,2.31-2.33c0.19-0.15,0.32-0.22,0.38-0.23C48.21,28.97,48.51,29.09,48.93,29.38z"/>
	</g>
</g>
<g>
	
		<linearGradient id="SVGID_00000155134136758580226700000000708222941487405448_" gradientUnits="userSpaceOnUse" x1="15.2483" y1="34.0038" x2="30.8715" y2="18.3807">
		<stop  offset="0.5909" style="stop-color:#1B1219"/>
		<stop  offset="0.6388" style="stop-color:#2E1413"/>
		<stop  offset="0.7131" style="stop-color:#45160B"/>
		<stop  offset="0.7932" style="stop-color:#551805"/>
		<stop  offset="0.8825" style="stop-color:#5F1902"/>
		<stop  offset="1" style="stop-color:#621901"/>
	</linearGradient>
	<path style="fill:url(#SVGID_00000155134136758580226700000000708222941487405448_);" d="M32.25,22.08
		c-0.08-0.08-0.18-0.17-0.28-0.27c-0.5-0.52-0.92-0.78-1.32-0.82c0.49-0.59,0.6-0.71,0.64-0.75c0.09-0.09,0.32-0.32,0.27-0.67
		l-0.02-0.14c-0.01-0.22-0.1-0.39-0.23-0.5c-0.04-0.07-0.1-0.15-0.19-0.22c-0.03-0.02-0.06-0.05-0.09-0.09
		c-0.02-0.02-0.05-0.06-0.09-0.12c-0.06-0.12-0.14-0.22-0.21-0.29c-0.14-0.15-0.29-0.26-0.44-0.3c-0.1-0.09-0.24-0.15-0.42-0.15
		c-0.04,0-0.08,0-0.12,0.01c-0.13,0.02-0.24,0.05-0.35,0.11c-0.1,0.05-0.2,0.14-0.37,0.31c-0.12,0.12-0.26,0.27-0.42,0.44
		c-0.16,0.17-0.41,0.44-0.75,0.83c-0.09,0.1-0.31,0.34-0.85,0.9c-0.45,0.47-0.79,0.85-1.04,1.15c-0.18,0.23-0.35,0.42-0.51,0.55
		l-0.62,0.53c-0.45,0.42-0.96,0.88-1.51,1.36c0.25-0.4,0.41-0.76,0.49-1.09c0.08-0.33,0.09-0.65,0.03-0.94
		c-0.06-0.26-0.19-0.6-0.42-1.05c-0.22-0.4-0.47-0.73-0.75-0.98l-0.02-0.02c-0.42-0.35-0.89-0.58-1.41-0.7
		c-0.11-0.02-0.24-0.03-0.38-0.03c-0.17,0-0.37,0.01-0.61,0.04c-0.7,0.09-1.28,0.3-1.73,0.63c-0.08,0.06-0.14,0.1-0.18,0.13
		c-0.08,0.04-0.19,0.12-0.38,0.26c-0.04,0.03-0.08,0.05-0.1,0.07l-0.43,0.05l-0.06,0.22c-0.02,0.02-0.04,0.04-0.06,0.06
		c0,0-0.04,0.02-0.06,0.04c-0.06,0.03-0.11,0.06-0.13,0.08c-0.36,0.21-0.66,0.52-0.89,0.91c-0.24,0.41-0.35,0.8-0.33,1.16
		c0.01,0.49,0.12,0.87,0.34,1.17c0.01,0.01,0.02,0.03,0.03,0.04c0.02,0.06,0.06,0.13,0.11,0.23c0.17,0.34,0.41,0.43,0.59,0.44
		c0.07,0.02,0.14,0.03,0.22,0.03c0.04,0,0.07,0,0.12-0.01l0.03,0l0.03-0.01c0.42-0.1,0.69-0.43,0.73-0.89
		c0.02-0.11,0.16-0.44,1.04-0.97c0.72-0.47,1.35-0.72,1.87-0.75c-0.2,0.24-0.43,0.5-0.68,0.76c-0.07,0.06-0.27,0.24-0.9,0.72
		c-0.45,0.34-0.62,0.46-0.68,0.5c-0.09,0.03-0.17,0.09-0.24,0.16c-0.02,0.02-0.05,0.03-0.07,0.05c-0.08,0.02-0.18,0.06-0.27,0.13
		c0,0-0.01,0-0.01,0c-0.06,0.02-0.19,0.06-0.3,0.15c-0.05,0.02-0.1,0.04-0.15,0.06l-0.07,0.03l-0.02,0.02
		c-0.05,0.02-0.17,0.08-0.51,0.2c-0.63,0.23-0.74,0.31-0.85,0.41c-0.1,0.1-0.22,0.29-0.22,0.57c0,0.07,0.01,0.15,0.03,0.21
		C16,26.18,16,26.3,16.03,26.44c0.04,0.22,0.11,0.43,0.21,0.62c0.01,0.02,0.02,0.04,0.03,0.06L15.7,27.2l1.21,0.94l0.09,0.03
		c0.09,0.03,0.19,0.05,0.33,0.05c0.16,0,0.38-0.02,0.7-0.06c0.25-0.03,0.48-0.04,0.69-0.04c0.46,0,0.85,0.06,1.14,0.18
		c0.01,0,0.02,0.01,0.02,0.01c-0.11,0.14-0.28,0.34-0.53,0.6c-0.18,0.19-0.4,0.39-0.67,0.61c-0.13,0.1-0.22,0.17-0.28,0.22l-0.18,0
		l-0.09,0.12l-0.1,0c0,0-0.18,0.21-0.19,0.22c-0.03,0.02-0.07,0.03-0.11,0.05l-0.03,0.02c-0.14,0.08-0.45,0.24-1.2,0.53
		c-0.11,0.02-0.23,0.03-0.36,0.03c-0.19,0-0.41-0.02-0.64-0.06l-0.02,0c-0.04-0.09-0.09-0.17-0.14-0.22
		c-0.02-0.03-0.05-0.05-0.08-0.07c-0.01-0.03-0.02-0.05-0.04-0.08c-0.01-0.03-0.02-0.07-0.04-0.1c-0.01-0.02-0.02-0.04-0.03-0.06
		c-0.02-0.09-0.07-0.18-0.13-0.25c-0.03-0.15-0.09-0.28-0.19-0.39c-0.09-0.1-0.18-0.17-0.28-0.21c-0.03-0.03-0.07-0.05-0.1-0.06
		c0,0,0,0-0.01-0.01c-0.12-0.13-0.29-0.2-0.47-0.2l-0.05,0l-0.04,0c-0.29,0.04-0.5,0.23-0.63,0.59c-0.23,0.5-0.23,1.09,0.02,1.76
		c0.28,0.71,0.55,1.21,0.83,1.5c0.27,0.32,0.58,0.55,0.92,0.69c0.29,0.12,0.56,0.16,0.9,0.2l0.15,0.02c0.11,0.01,0.21,0.02,0.3,0.02
		c0.13,0,0.23-0.01,0.29-0.02l0.11-0.01c0.37-0.03,0.92-0.09,1.69-0.46c0.79-0.38,1.52-0.85,2.17-1.38
		c0.66-0.54,1.16-1.09,1.49-1.63c0.33-0.55,0.46-1.11,0.39-1.66c0.02,0.01,0.04,0.02,0.07,0.03c0.09,0.03,0.19,0.04,0.33,0.04
		c0.23,0,0.64-0.03,1.23-0.1c0.61-0.07,1.13-0.14,1.54-0.22c-0.23,0.54-0.3,0.76-0.33,0.89c-0.03,0.13-0.09,0.33-0.18,0.59
		c-0.34,1-0.36,1.34-0.34,1.55c0.05,0.38,0.22,0.75,0.51,1.11l0.02,0.03l0.05,0.04c0.02,0.02,0.08,0.08,0.16,0.16
		c0.08,0.1,0.19,0.22,0.36,0.36c0.03,0.03,0.06,0.05,0.09,0.07c0.06,0.12,0.18,0.25,0.39,0.34c0.13,0.06,0.26,0.09,0.39,0.09
		c0.19,0,0.46-0.06,0.73-0.36c0.27-0.25,0.4-0.51,0.39-0.78c0.01-0.04,0.04-0.16,0.12-0.41c0.1-0.32,0.24-0.71,0.41-1.16
		c0.17-0.44,0.34-0.86,0.52-1.27c0.23-0.57,0.79-1.71,1.64-3.39c0.9-1.78,1.22-2.36,1.32-2.54c0,0,0.01-0.01,0.01-0.01
		c0.32-0.13,0.53-0.38,0.6-0.71C32.62,22.65,32.51,22.32,32.25,22.08z M27.88,24.12c-0.03,0.03-0.07,0.05-0.1,0.08
		c0.08-0.08,0.16-0.17,0.24-0.25C27.92,24.07,27.89,24.11,27.88,24.12z"/>
	<path class="st23" d="M16.61,33.2c-0.05,0.01-0.22,0.03-0.46,0c-0.4-0.05-0.64-0.07-0.9-0.18c-0.25-0.11-0.49-0.29-0.71-0.54
		c-0.24-0.25-0.48-0.69-0.73-1.33c-0.2-0.53-0.21-0.98-0.03-1.34c0.05-0.16,0.11-0.24,0.18-0.25c0.06-0.01,0.09,0.03,0.09,0.13
		c0.01,0.05,0.02,0.09,0.04,0.11c0.02,0.02,0.05-0.01,0.08-0.07c0.01-0.04,0.04-0.03,0.09,0.03c0.04,0.06,0.07,0.07,0.08,0.05
		c0.01-0.03,0.03-0.02,0.07,0.03c0.04,0.05,0.07,0.11,0.07,0.19c0,0.07,0.03,0.13,0.08,0.16c0.05,0.03,0.06,0.07,0.04,0.12
		c-0.02,0.05-0.01,0.08,0.04,0.09c0.05,0.01,0.07,0.04,0.05,0.08c-0.01,0.04-0.01,0.06,0.02,0.05c0.03,0,0.04,0.03,0.04,0.09
		c0,0.07-0.02,0.1-0.04,0.1c-0.03,0-0.03,0.02-0.01,0.04c0.02,0.03,0.06,0.03,0.12,0.03c0.05-0.02,0.09-0.02,0.13,0.01
		c0.03,0.03,0.05,0.09,0.05,0.16c0,0.07,0.03,0.13,0.09,0.16c0.06,0.03,0.17,0.05,0.34,0.07c0.53,0.08,0.97,0.08,1.31,0
		c0.38-0.07-1.42,0.53-0.51,0.19c0.91-0.35,1.51-0.6,1.79-0.77c0.14-0.07,0.23-0.11,0.26-0.12l0.02-0.06c0-0.04,0.01-0.04,0.04-0.02
		c0.03,0.02,0.05,0.02,0.05-0.02c0-0.04,0.03-0.05,0.07-0.04c0.02,0,0.03,0,0.04-0.01c0.01,0,0.01-0.01,0.01-0.03
		c0-0.02,0-0.03,0.01-0.04c0.01-0.01,0.02-0.01,0.04,0.01c0.04,0,0.2-0.12,0.49-0.35c0.29-0.23,0.53-0.45,0.73-0.66
		c0.43-0.44,0.7-0.79,0.82-1.02c0.04-0.1,0.03-0.18-0.04-0.25c-0.07-0.06-0.23-0.15-0.46-0.25c-0.53-0.21-1.23-0.27-2.11-0.18
		c-0.44,0.06-0.7,0.07-0.78,0.04l-0.06-0.05c0.02,0,0.01-0.04-0.03-0.11c-0.04-0.07-0.03-0.13,0.01-0.17
		c0.04-0.04,0.02-0.06-0.05-0.05c-0.04,0-0.08-0.02-0.14-0.08c-0.05-0.06-0.07-0.1-0.06-0.12c0-0.02-0.04-0.1-0.12-0.25
		c-0.07-0.15-0.13-0.3-0.16-0.47c-0.03-0.16,0-0.27,0.09-0.32l0.1-0.07l-0.11,0.01c-0.07,0.01-0.11-0.02-0.11-0.1
		c0-0.07,0.02-0.13,0.06-0.18c0.04-0.04,0.25-0.13,0.63-0.28c0.38-0.14,0.6-0.23,0.65-0.28c0.05-0.02,0.1-0.04,0.15-0.05
		c0.05-0.01,0.08-0.02,0.09-0.05c0.01-0.03,0.07-0.06,0.16-0.09c0.09-0.03,0.14-0.05,0.16-0.08c0.02-0.02,0.06-0.04,0.12-0.06
		c0.06-0.02,0.12-0.05,0.17-0.09c0.05-0.04,0.09-0.06,0.11-0.04c0.02,0.02,0.03,0.01,0.02-0.03c0-0.04,0.01-0.06,0.05-0.06
		c0.04,0,0.31-0.2,0.81-0.58c0.5-0.38,0.82-0.63,0.95-0.76c0.35-0.36,0.64-0.69,0.88-1c0.24-0.31,0.35-0.5,0.32-0.57
		c0-0.04-0.11-0.07-0.31-0.11c-0.2-0.04-0.38-0.06-0.55-0.06c-0.63,0.01-1.38,0.29-2.24,0.84c-0.81,0.49-1.25,0.96-1.3,1.39
		c-0.01,0.22-0.1,0.36-0.28,0.4c-0.09,0.01-0.14-0.01-0.15-0.07l-0.05,0.01c-0.03,0.06-0.08,0.03-0.14-0.09
		c-0.06-0.12-0.09-0.19-0.1-0.21c0-0.02-0.04-0.07-0.1-0.15c-0.14-0.19-0.21-0.47-0.22-0.84c-0.01-0.26,0.07-0.54,0.25-0.86
		c0.18-0.31,0.41-0.55,0.69-0.71c0.03-0.02,0.07-0.05,0.12-0.07c0.04-0.02,0.07-0.04,0.09-0.05c0.02-0.01,0.03-0.01,0.03,0.01
		c0.13-0.16,0.19-0.22,0.17-0.16c0,0.02,0.01,0.03,0.02,0.03c0.01,0,0.02,0,0.04-0.01c0.03-0.02,0.04-0.05,0.02-0.09
		c-0.02-0.02-0.03-0.02-0.02-0.03c0.01,0,0.02,0,0.04-0.01c0.04,0.03,0.16-0.03,0.37-0.17c0.2-0.15,0.31-0.22,0.32-0.22
		c0.01,0,0.09-0.06,0.24-0.17c0.37-0.27,0.86-0.44,1.47-0.52c0.37-0.05,0.64-0.05,0.81-0.02c0.42,0.1,0.81,0.29,1.16,0.58
		c0.23,0.21,0.44,0.49,0.64,0.84c0.2,0.38,0.32,0.68,0.36,0.89c0.04,0.21,0.04,0.44-0.03,0.69c-0.07,0.31-0.24,0.66-0.51,1.07
		c-0.51,0.71-1.17,1.37-1.99,1.95c-0.29,0.19-0.44,0.28-0.45,0.29c-0.01,0.01,0.12,0.15,0.37,0.41c0.19,0.16,0.37,0.37,0.55,0.63
		c0.18,0.26,0.34,0.52,0.47,0.78c0.14,0.26,0.22,0.49,0.24,0.69c0.1,0.47,0,0.95-0.29,1.43c-0.29,0.48-0.75,0.98-1.36,1.48
		c-0.62,0.51-1.3,0.94-2.05,1.3C17.47,33.15,16.97,33.16,16.61,33.2z"/>
	<path class="st23" d="M27.13,32.85c-0.16,0.19-0.32,0.24-0.48,0.14c-0.08-0.03-0.12-0.06-0.12-0.1c0-0.04-0.08-0.12-0.23-0.24
		c-0.15-0.12-0.24-0.22-0.29-0.28c-0.13-0.13-0.2-0.21-0.22-0.22c-0.22-0.27-0.35-0.54-0.38-0.82c-0.02-0.18,0.08-0.61,0.31-1.29
		c0.1-0.27,0.16-0.49,0.2-0.64c0.05-0.21,0.22-0.65,0.53-1.32c0.11-0.27,0.16-0.42,0.14-0.44c-0.02-0.02-0.25,0.02-0.68,0.11
		c-0.43,0.09-1.04,0.18-1.82,0.27c-0.78,0.09-1.22,0.12-1.33,0.08c-0.11-0.03-0.26-0.16-0.45-0.38c-0.38-0.47-0.58-0.82-0.61-1.04
		c0-0.17-0.03-0.25-0.09-0.24c-0.13,0.02-0.11-0.07,0.05-0.26c0.02-0.02,0.04-0.05,0.07-0.08c0.03-0.03,0.07-0.07,0.11-0.11
		c0.04-0.04,0.08-0.08,0.13-0.11c0.04-0.03,0.08-0.07,0.11-0.1c0.03-0.03,0.06-0.06,0.07-0.08c0.02-0.02,0.03-0.03,0.05-0.03
		c0.09-0.01,0.26-0.15,0.5-0.43c0.03-0.06,0.28-0.29,0.75-0.68c0.64-0.56,1.21-1.08,1.73-1.56c0.25-0.22,0.45-0.39,0.6-0.52
		c0.19-0.15,0.38-0.36,0.59-0.63c0.23-0.27,0.56-0.64,1-1.1c0.44-0.46,0.73-0.77,0.86-0.92c0.34-0.38,0.59-0.65,0.75-0.82
		c0.16-0.17,0.29-0.31,0.41-0.43c0.12-0.12,0.19-0.19,0.24-0.21c0.04-0.02,0.09-0.04,0.15-0.05c0.15-0.02,0.15,0.03,0.02,0.14
		l-0.05,0.06c-0.19,0.14-0.51,0.46-0.96,0.99c-0.99,1.15-1.95,2.17-2.88,3.07c-0.12,0.11-0.32,0.3-0.61,0.58
		c-0.29,0.28-0.49,0.47-0.61,0.58c-0.46,0.47-1.26,1.17-2.38,2.11l-0.37,0.35c0.04,0,0.35-0.25,0.93-0.73
		c0.58-0.48,1.08-0.92,1.5-1.3c1.3-1.17,2.74-2.63,4.3-4.39c0.78-0.88,1.24-1.33,1.36-1.34c0.07-0.01,0.16,0.04,0.26,0.15
		c0.1,0.11,0.14,0.16,0.12,0.17c0.07,0.1,0.14,0.19,0.2,0.25c0.06,0.07,0.12,0.12,0.16,0.15c0.06,0.05,0.07,0.09,0.03,0.12
		c-0.04,0.03-0.1,0.08-0.16,0.15c-0.03,0.06-0.05,0.08-0.05,0.06l0.13-0.07c0.17-0.11,0.26-0.1,0.26,0.05
		c0,0.04,0.01,0.07,0.01,0.11c0,0.04,0.01,0.06,0.01,0.08c0,0.04-0.03,0.1-0.12,0.18c-0.07,0.06-0.35,0.4-0.85,1
		c-0.96,1.12-2.02,2.29-3.19,3.5c-0.56,0.57-0.88,0.9-0.96,0.99l-0.15,0.16l0.41-0.08c0.89-0.17,1.59-0.45,2.1-0.85
		c0.15-0.13,0.43-0.53,0.83-1.19c0.13-0.26,0.26-0.45,0.37-0.58c0.11-0.13,0.22-0.29,0.33-0.49c0.24-0.44,0.47-0.68,0.69-0.73
		c0.27-0.07,0.64,0.14,1.11,0.64c0.11,0.1,0.2,0.19,0.29,0.27c0.13,0.11,0.17,0.24,0.15,0.39c-0.03,0.14-0.12,0.24-0.28,0.3
		c-0.09,0.05-0.15,0.08-0.18,0.11c-0.08,0.1-0.55,1-1.42,2.7c-0.86,1.7-1.42,2.84-1.66,3.43c-0.17,0.39-0.35,0.82-0.52,1.28
		c-0.17,0.46-0.32,0.85-0.42,1.18c-0.11,0.33-0.16,0.52-0.15,0.58C27.37,32.57,27.3,32.7,27.13,32.85z"/>
</g>
</svg>
